<?xml version="1.0" encoding="utf-8" standalone="no"?>
<!DOCTYPE svg PUBLIC "-//W3C//DTD SVG 1.1//EN"
  "http://www.w3.org/Graphics/SVG/1.1/DTD/svg11.dtd">
<svg xmlns:xlink="http://www.w3.org/1999/xlink" width="936pt" height="504pt" viewBox="0 0 936 504" xmlns="http://www.w3.org/2000/svg" version="1.1">
 <metadata>
  <rdf:RDF xmlns:dc="http://purl.org/dc/elements/1.1/" xmlns:cc="http://creativecommons.org/ns#" xmlns:rdf="http://www.w3.org/1999/02/22-rdf-syntax-ns#">
   <cc:Work>
    <dc:type rdf:resource="http://purl.org/dc/dcmitype/StillImage"/>
    <dc:date>2023-06-30T21:37:24.209194</dc:date>
    <dc:format>image/svg+xml</dc:format>
    <dc:creator>
     <cc:Agent>
      <dc:title>Matplotlib v3.5.1, https://matplotlib.org/</dc:title>
     </cc:Agent>
    </dc:creator>
   </cc:Work>
  </rdf:RDF>
 </metadata>
 <defs>
  <style type="text/css">*{stroke-linejoin: round; stroke-linecap: butt}</style>
 </defs>
 <g id="figure_1">
  <g id="patch_1">
   <path d="M 0 504 
L 936 504 
L 936 0 
L 0 0 
z
" style="fill: #ffffff"/>
  </g>
  <g id="axes_1">
   <g id="patch_2">
    <path d="M 117 448.56 
L 842.4 448.56 
L 842.4 60.48 
L 117 60.48 
z
" style="fill: #ffffff"/>
   </g>
   <g id="matplotlib.axis_1">
    <g id="xtick_1">
     <g id="line2d_1">
      <defs>
       <path id="mdddfce5edb" d="M 0 0 
L 0 3.5 
" style="stroke: #000000; stroke-width: 0.8"/>
      </defs>
      <g>
       <use xlink:href="#mdddfce5edb" x="117" y="448.56" style="stroke: #000000; stroke-width: 0.8"/>
      </g>
     </g>
     <g id="text_1">
      <!-- 0.0 -->
      <g transform="translate(100.5 470.599063)scale(0.22 -0.22)">
       <defs>
        <path id="SimHei-30" d="M 2975 2250 
Q 2975 1350 2650 700 
Q 2325 50 1600 50 
Q 875 50 537 700 
Q 200 1350 200 2250 
Q 200 3150 537 3787 
Q 875 4425 1600 4425 
Q 2325 4425 2650 3787 
Q 2975 3150 2975 2250 
z
M 2375 2250 
Q 2375 3050 2187 3500 
Q 2000 3950 1600 3950 
Q 1200 3950 1000 3500 
Q 800 3050 800 2250 
Q 800 1450 1000 987 
Q 1200 525 1600 525 
Q 2000 525 2187 987 
Q 2375 1450 2375 2250 
z
" transform="scale(0.015625)"/>
        <path id="SimHei-2e" d="M 1100 100 
L 525 100 
L 525 650 
L 1100 650 
L 1100 100 
z
" transform="scale(0.015625)"/>
       </defs>
       <use xlink:href="#SimHei-30"/>
       <use xlink:href="#SimHei-2e" x="50"/>
       <use xlink:href="#SimHei-30" x="100"/>
      </g>
     </g>
    </g>
    <g id="xtick_2">
     <g id="line2d_2">
      <g>
       <use xlink:href="#mdddfce5edb" x="262.08" y="448.56" style="stroke: #000000; stroke-width: 0.8"/>
      </g>
     </g>
     <g id="text_2">
      <!-- 0.2 -->
      <g transform="translate(245.58 470.599063)scale(0.22 -0.22)">
       <defs>
        <path id="SimHei-32" d="M 2850 100 
L 300 100 
L 300 500 
Q 450 900 712 1237 
Q 975 1575 1475 2000 
Q 1850 2325 2012 2600 
Q 2175 2875 2175 3200 
Q 2175 3525 2037 3737 
Q 1900 3950 1600 3950 
Q 1350 3950 1162 3725 
Q 975 3500 975 2925 
L 400 2925 
Q 425 3650 737 4037 
Q 1050 4425 1625 4425 
Q 2175 4425 2475 4087 
Q 2775 3750 2775 3175 
Q 2775 2700 2500 2350 
Q 2225 2000 1825 1650 
Q 1375 1250 1200 1050 
Q 1025 850 875 575 
L 2850 575 
L 2850 100 
z
" transform="scale(0.015625)"/>
       </defs>
       <use xlink:href="#SimHei-30"/>
       <use xlink:href="#SimHei-2e" x="50"/>
       <use xlink:href="#SimHei-32" x="100"/>
      </g>
     </g>
    </g>
    <g id="xtick_3">
     <g id="line2d_3">
      <g>
       <use xlink:href="#mdddfce5edb" x="407.16" y="448.56" style="stroke: #000000; stroke-width: 0.8"/>
      </g>
     </g>
     <g id="text_3">
      <!-- 0.4 -->
      <g transform="translate(390.66 470.599063)scale(0.22 -0.22)">
       <defs>
        <path id="SimHei-34" d="M 2975 1200 
L 2450 1200 
L 2450 100 
L 1875 100 
L 1875 1200 
L 200 1200 
L 200 1675 
L 1875 4425 
L 2450 4425 
L 2450 1675 
L 2975 1675 
L 2975 1200 
z
M 1875 1675 
L 1875 3525 
L 750 1675 
L 1875 1675 
z
" transform="scale(0.015625)"/>
       </defs>
       <use xlink:href="#SimHei-30"/>
       <use xlink:href="#SimHei-2e" x="50"/>
       <use xlink:href="#SimHei-34" x="100"/>
      </g>
     </g>
    </g>
    <g id="xtick_4">
     <g id="line2d_4">
      <g>
       <use xlink:href="#mdddfce5edb" x="552.24" y="448.56" style="stroke: #000000; stroke-width: 0.8"/>
      </g>
     </g>
     <g id="text_4">
      <!-- 0.6 -->
      <g transform="translate(535.74 470.599063)scale(0.22 -0.22)">
       <defs>
        <path id="SimHei-36" d="M 2850 1550 
Q 2850 850 2550 450 
Q 2250 50 1650 50 
Q 1050 50 700 550 
Q 350 1050 350 2175 
Q 350 3200 712 3812 
Q 1075 4425 1750 4425 
Q 2225 4425 2512 4075 
Q 2800 3725 2800 3300 
L 2225 3300 
Q 2225 3550 2087 3750 
Q 1950 3950 1725 3950 
Q 1350 3950 1150 3562 
Q 950 3175 925 2375 
Q 1100 2700 1300 2825 
Q 1500 2950 1775 2950 
Q 2250 2950 2550 2575 
Q 2850 2200 2850 1550 
z
M 2250 1550 
Q 2250 2000 2100 2250 
Q 1950 2500 1675 2500 
Q 1350 2500 1162 2250 
Q 975 2000 975 1650 
Q 975 1100 1162 800 
Q 1350 500 1675 500 
Q 1900 500 2075 725 
Q 2250 950 2250 1550 
z
" transform="scale(0.015625)"/>
       </defs>
       <use xlink:href="#SimHei-30"/>
       <use xlink:href="#SimHei-2e" x="50"/>
       <use xlink:href="#SimHei-36" x="100"/>
      </g>
     </g>
    </g>
    <g id="xtick_5">
     <g id="line2d_5">
      <g>
       <use xlink:href="#mdddfce5edb" x="697.32" y="448.56" style="stroke: #000000; stroke-width: 0.8"/>
      </g>
     </g>
     <g id="text_5">
      <!-- 0.8 -->
      <g transform="translate(680.82 470.599063)scale(0.22 -0.22)">
       <defs>
        <path id="SimHei-38" d="M 2875 1325 
Q 2875 700 2525 375 
Q 2175 50 1575 50 
Q 975 50 625 375 
Q 275 700 275 1325 
Q 275 1650 475 1912 
Q 675 2175 1025 2300 
Q 725 2425 562 2650 
Q 400 2875 400 3225 
Q 400 3775 750 4100 
Q 1100 4425 1575 4425 
Q 2050 4425 2400 4100 
Q 2750 3775 2750 3225 
Q 2750 2875 2587 2650 
Q 2425 2425 2125 2300 
Q 2475 2175 2675 1912 
Q 2875 1650 2875 1325 
z
M 2200 3225 
Q 2200 3625 2025 3800 
Q 1850 3975 1575 3975 
Q 1300 3975 1125 3800 
Q 950 3625 950 3225 
Q 950 2825 1137 2662 
Q 1325 2500 1575 2500 
Q 1825 2500 2012 2662 
Q 2200 2825 2200 3225 
z
M 2300 1325 
Q 2300 1675 2112 1875 
Q 1925 2075 1575 2075 
Q 1225 2075 1037 1875 
Q 850 1675 850 1325 
Q 850 925 1050 712 
Q 1250 500 1575 500 
Q 1900 500 2100 712 
Q 2300 925 2300 1325 
z
" transform="scale(0.015625)"/>
       </defs>
       <use xlink:href="#SimHei-30"/>
       <use xlink:href="#SimHei-2e" x="50"/>
       <use xlink:href="#SimHei-38" x="100"/>
      </g>
     </g>
    </g>
    <g id="xtick_6">
     <g id="line2d_6">
      <g>
       <use xlink:href="#mdddfce5edb" x="842.4" y="448.56" style="stroke: #000000; stroke-width: 0.8"/>
      </g>
     </g>
     <g id="text_6">
      <!-- 1.0 -->
      <g transform="translate(825.9 470.599063)scale(0.22 -0.22)">
       <defs>
        <path id="SimHei-31" d="M 1950 100 
L 1375 100 
L 1375 3425 
L 625 3425 
L 625 3725 
Q 1075 3725 1325 3900 
Q 1575 4075 1650 4425 
L 1950 4425 
L 1950 100 
z
" transform="scale(0.015625)"/>
       </defs>
       <use xlink:href="#SimHei-31"/>
       <use xlink:href="#SimHei-2e" x="50"/>
       <use xlink:href="#SimHei-30" x="100"/>
      </g>
     </g>
    </g>
    <g id="text_7">
     <!-- 蜜罐仿真度 -->
     <g transform="translate(424.7 494.880313)scale(0.22 -0.22)">
      <defs>
       <path id="SimHei-871c" d="M 1225 3550 
Q 1400 3500 1675 3425 
Q 1575 3300 1500 3025 
Q 1425 2750 1350 2500 
Q 1100 2575 925 2600 
Q 1000 2775 1075 2987 
Q 1150 3200 1225 3550 
z
M 2525 3850 
Q 2700 3975 2850 4100 
Q 3000 3975 3125 3862 
Q 3250 3750 3400 3600 
Q 3225 3450 3075 3325 
Q 2950 3475 2837 3587 
Q 2725 3700 2525 3850 
z
M 4775 3275 
Q 4925 3400 5100 3525 
Q 5275 3375 5487 3175 
Q 5700 2975 5850 2825 
Q 5675 2725 5500 2550 
Q 5350 2725 5150 2925 
Q 4950 3125 4775 3275 
z
M 4250 4075 
Q 4450 3900 4725 3700 
Q 4575 3675 4400 3525 
Q 4225 3375 3987 3187 
Q 3750 3000 3425 2787 
Q 3100 2575 2675 2375 
L 3700 2375 
Q 4075 2375 4187 2450 
Q 4300 2525 4350 3050 
Q 4525 2875 4825 2775 
Q 4675 2250 4487 2137 
Q 4300 2025 3950 2050 
L 2750 2050 
Q 2275 2050 2225 2175 
Q 1925 2050 1587 1925 
Q 1250 1800 825 1675 
Q 700 1850 525 2075 
Q 1000 2150 1375 2262 
Q 1750 2375 2125 2525 
Q 2125 2800 2125 2987 
Q 2125 3175 2100 3400 
L 2600 3400 
Q 2550 3225 2550 3075 
Q 2550 2925 2550 2725 
Q 2950 2950 3337 3200 
Q 3725 3450 4250 4075 
z
M 3125 1650 
Q 3125 1775 3100 1950 
L 3600 1950 
Q 3575 1775 3575 1650 
L 5325 1650 
Q 5300 1375 5300 1050 
Q 5300 725 5325 475 
L 4825 475 
Q 5100 275 5337 87 
Q 5575 -100 5825 -275 
Q 5625 -425 5425 -625 
Q 5225 -400 5050 -275 
Q 4450 -325 3337 -412 
Q 2225 -500 1000 -675 
Q 900 -400 775 -175 
Q 1275 -175 1800 -150 
Q 2325 -125 3125 -75 
L 3125 475 
L 1825 475 
L 1825 150 
L 1375 150 
Q 1400 375 1400 887 
Q 1400 1400 1375 1650 
L 3125 1650 
z
M 1825 1325 
L 1825 800 
L 3125 800 
L 3125 1325 
L 1825 1325 
z
M 3575 1325 
L 3575 800 
L 4850 800 
L 4850 1325 
L 3575 1325 
z
M 3575 475 
L 3575 -50 
Q 4025 -25 4725 25 
Q 4575 125 4450 225 
Q 4625 350 4750 475 
L 3575 475 
z
M 5975 4575 
Q 5950 4325 5950 4075 
Q 5950 3825 5975 3575 
L 5475 3575 
L 5475 4225 
L 1100 4225 
L 1100 3575 
L 600 3575 
Q 625 3825 625 4062 
Q 625 4300 600 4575 
L 3025 4575 
Q 2925 4850 2825 5050 
Q 3125 5125 3375 5200 
Q 3475 4925 3575 4575 
L 5975 4575 
z
" transform="scale(0.015625)"/>
       <path id="SimHei-7f50" d="M 900 250 
L 1350 325 
L 1350 2325 
L 850 2325 
Q 550 2325 275 2300 
L 275 2700 
Q 550 2675 850 2675 
L 1350 2675 
L 1350 3775 
L 950 3775 
Q 800 3400 625 3025 
Q 475 3200 300 3325 
Q 500 3675 662 4187 
Q 825 4700 900 5125 
Q 1125 5025 1425 4975 
Q 1300 4825 1225 4600 
Q 1150 4375 1050 4125 
L 1850 4125 
Q 2150 4125 2500 4150 
L 2500 3750 
Q 2125 3775 1725 3775 
L 1725 2675 
Q 2175 2675 2600 2700 
L 2600 2300 
Q 2175 2325 1725 2325 
L 1725 375 
L 2125 450 
L 2125 1050 
Q 2125 1350 2100 1675 
L 2550 1675 
Q 2500 1400 2500 1100 
L 2500 -200 
L 2125 -200 
L 2125 75 
Q 975 -100 500 -200 
Q 525 300 525 737 
Q 525 1175 500 1700 
L 925 1700 
Q 900 1375 900 1025 
L 900 250 
z
M 3375 3475 
L 3375 2975 
L 3925 2975 
L 3925 3475 
L 3375 3475 
z
M 3025 3750 
L 4275 3750 
L 4275 2700 
L 3025 2700 
L 3025 3750 
z
M 4825 4525 
Q 4825 4825 4800 5100 
L 5225 5100 
Q 5200 4825 5200 4525 
Q 5700 4525 6150 4550 
L 6150 4200 
Q 5700 4225 5200 4225 
L 5200 3925 
L 4825 3925 
L 4825 4225 
L 4050 4225 
L 4050 3925 
L 3675 3925 
L 3675 4225 
Q 3000 4225 2675 4200 
L 2675 4550 
Q 3000 4525 3675 4525 
Q 3675 4825 3650 5075 
L 4075 5075 
Q 4050 4825 4050 4525 
L 4825 4525 
z
M 4975 3475 
L 4975 2975 
L 5550 2975 
L 5550 3475 
L 4975 3475 
z
M 3600 1900 
L 3600 1425 
L 4475 1425 
L 4475 1900 
L 3600 1900 
z
M 3600 1125 
L 3600 700 
L 4475 700 
L 4475 1125 
L 3600 1125 
z
M 3600 400 
L 3600 -50 
L 4475 -50 
L 4475 400 
L 3600 400 
z
M 3375 2625 
Q 3600 2525 3850 2475 
Q 3750 2350 3700 2200 
L 4475 2200 
Q 4375 2400 4300 2575 
Q 4450 2650 4625 2725 
L 4625 3750 
L 5900 3750 
L 5900 2700 
L 4725 2700 
Q 4775 2550 4875 2350 
Q 4700 2300 4550 2200 
L 5325 2200 
Q 5625 2200 6000 2225 
L 6000 1875 
Q 5625 1900 5325 1900 
L 4850 1900 
L 4850 1425 
L 5225 1425 
Q 5525 1425 5850 1450 
L 5850 1100 
Q 5450 1125 5225 1125 
L 4850 1125 
L 4850 700 
L 5275 700 
Q 5575 700 5900 725 
L 5900 375 
Q 5575 400 5275 400 
L 4850 400 
L 4850 -50 
L 5475 -50 
Q 5700 -50 6100 -25 
L 6100 -375 
Q 5625 -350 5475 -350 
L 3600 -350 
L 3600 -625 
L 3200 -625 
Q 3225 -50 3225 125 
L 3225 1300 
Q 3125 1050 2900 725 
Q 2750 925 2625 1050 
Q 2950 1450 3100 1800 
Q 3250 2150 3375 2625 
z
" transform="scale(0.015625)"/>
       <path id="SimHei-4eff" d="M 1050 -525 
Q 1075 75 1075 600 
L 1075 3025 
Q 825 2575 625 2275 
Q 450 2500 250 2650 
Q 500 2950 900 3725 
Q 1300 4500 1400 5150 
Q 1725 5025 2025 4950 
Q 1875 4725 1550 3875 
L 1550 625 
Q 1550 75 1575 -525 
L 1050 -525 
z
M 3550 4925 
Q 3775 5050 4025 5175 
Q 4100 5025 4200 4850 
Q 4300 4675 4425 4375 
Q 4175 4275 3925 4175 
Q 3825 4500 3550 4925 
z
M 2350 -550 
Q 2225 -375 1800 -200 
Q 2375 175 2750 1087 
Q 3125 2000 3075 3575 
L 2775 3575 
Q 2400 3550 2075 3525 
L 2075 4000 
Q 2400 3975 2750 3975 
L 5225 3975 
Q 5625 3975 6050 4000 
L 6050 3550 
Q 5625 3575 5225 3575 
L 3550 3575 
L 3550 2725 
L 5550 2725 
Q 5500 2400 5475 2050 
L 5300 250 
Q 5250 -225 4937 -312 
Q 4625 -400 4175 -450 
Q 4100 -150 3950 150 
Q 4425 100 4612 125 
Q 4800 150 4825 425 
L 5000 2325 
L 3525 2325 
Q 3400 625 2350 -550 
z
" transform="scale(0.015625)"/>
       <path id="SimHei-771f" d="M 2925 5150 
Q 3275 5125 3525 5100 
Q 3450 4925 3400 4600 
L 4800 4600 
Q 5150 4600 5675 4625 
L 5675 4200 
Q 5175 4225 4800 4225 
L 3350 4225 
L 3300 3825 
L 5000 3825 
Q 4975 3550 4975 3125 
L 4975 1000 
L 5375 1000 
Q 5750 1000 6050 1025 
L 6050 600 
Q 5525 625 4850 625 
L 1450 625 
Q 775 625 325 600 
L 325 1025 
Q 725 1000 1075 1000 
L 1425 1000 
L 1425 3050 
Q 1425 3425 1400 3825 
L 2800 3825 
L 2850 4225 
L 1400 4225 
Q 1025 4225 625 4200 
L 625 4625 
Q 1150 4600 1375 4600 
L 2900 4600 
Q 2925 4875 2925 5150 
z
M 1925 3450 
L 1925 3100 
L 4475 3100 
L 4475 3450 
L 1925 3450 
z
M 1925 2725 
L 1925 2400 
L 4475 2400 
L 4475 2725 
L 1925 2725 
z
M 1925 2025 
L 1925 1725 
L 4475 1725 
L 4475 2025 
L 1925 2025 
z
M 1925 1350 
L 1925 1000 
L 4475 1000 
L 4475 1350 
L 1925 1350 
z
M 2325 450 
Q 2525 275 2750 100 
Q 2350 -125 1862 -337 
Q 1375 -550 950 -700 
Q 775 -500 600 -325 
Q 1200 -150 1600 37 
Q 2000 225 2325 450 
z
M 3750 75 
Q 3900 275 4050 475 
Q 4475 350 4900 175 
Q 5325 0 5775 -225 
Q 5500 -525 5400 -675 
Q 4950 -400 4487 -200 
Q 4025 0 3750 75 
z
" transform="scale(0.015625)"/>
       <path id="SimHei-5ea6" d="M 2975 2925 
L 2975 2400 
L 4300 2400 
L 4300 2925 
L 2975 2925 
z
M 1750 3325 
Q 2225 3300 2525 3300 
Q 2525 3600 2500 3825 
L 3000 3825 
Q 2975 3625 2975 3300 
L 4300 3300 
Q 4300 3600 4275 3850 
L 4775 3850 
Q 4750 3600 4750 3300 
Q 5275 3300 5675 3325 
L 5675 2900 
Q 5300 2925 4750 2925 
Q 4750 2325 4775 2025 
L 2500 2025 
Q 2525 2350 2525 2925 
Q 2225 2925 1750 2900 
L 1750 3325 
z
M 2925 1225 
Q 2500 1225 2025 1200 
L 2025 1625 
Q 2500 1600 2900 1600 
L 5100 1600 
Q 4875 1150 4600 775 
Q 4325 400 4025 175 
Q 4400 0 4887 -75 
Q 5375 -150 5875 -125 
Q 5675 -350 5575 -650 
Q 5025 -600 4575 -475 
Q 4125 -350 3625 -150 
Q 3125 -350 2650 -462 
Q 2175 -575 1650 -650 
Q 1575 -400 1425 -150 
Q 1950 -150 2375 -75 
Q 2800 0 3275 150 
Q 2975 400 2500 1225 
L 3000 1225 
Q 3250 750 3675 400 
Q 4050 675 4400 1225 
L 2925 1225 
z
M 3125 4400 
Q 3050 4750 2950 5100 
Q 3150 5125 3475 5200 
Q 3550 4875 3650 4400 
L 4575 4400 
Q 5075 4425 5700 4450 
L 5700 4000 
Q 5100 4025 4625 4025 
L 1450 4025 
Q 1450 2900 1425 2212 
Q 1400 1525 1262 875 
Q 1125 225 725 -550 
Q 500 -300 275 -200 
Q 650 350 812 1012 
Q 975 1675 987 2712 
Q 1000 3750 975 4400 
L 3125 4400 
z
" transform="scale(0.015625)"/>
      </defs>
      <use xlink:href="#SimHei-871c"/>
      <use xlink:href="#SimHei-7f50" x="100"/>
      <use xlink:href="#SimHei-4eff" x="200"/>
      <use xlink:href="#SimHei-771f" x="300"/>
      <use xlink:href="#SimHei-5ea6" x="400"/>
     </g>
    </g>
   </g>
   <g id="matplotlib.axis_2">
    <g id="ytick_1">
     <g id="line2d_7">
      <defs>
       <path id="m47f7049e74" d="M 0 0 
L -3.5 0 
" style="stroke: #000000; stroke-width: 0.8"/>
      </defs>
      <g>
       <use xlink:href="#m47f7049e74" x="117" y="448.56" style="stroke: #000000; stroke-width: 0.8"/>
      </g>
     </g>
     <g id="text_8">
      <!-- 0 -->
      <g transform="translate(99 456.079531)scale(0.22 -0.22)">
       <use xlink:href="#SimHei-30"/>
      </g>
     </g>
    </g>
    <g id="ytick_2">
     <g id="line2d_8">
      <g>
       <use xlink:href="#m47f7049e74" x="117" y="370.944" style="stroke: #000000; stroke-width: 0.8"/>
      </g>
     </g>
     <g id="text_9">
      <!-- 2 -->
      <g transform="translate(99 378.463531)scale(0.22 -0.22)">
       <use xlink:href="#SimHei-32"/>
      </g>
     </g>
    </g>
    <g id="ytick_3">
     <g id="line2d_9">
      <g>
       <use xlink:href="#m47f7049e74" x="117" y="293.328" style="stroke: #000000; stroke-width: 0.8"/>
      </g>
     </g>
     <g id="text_10">
      <!-- 4 -->
      <g transform="translate(99 300.847531)scale(0.22 -0.22)">
       <use xlink:href="#SimHei-34"/>
      </g>
     </g>
    </g>
    <g id="ytick_4">
     <g id="line2d_10">
      <g>
       <use xlink:href="#m47f7049e74" x="117" y="215.712" style="stroke: #000000; stroke-width: 0.8"/>
      </g>
     </g>
     <g id="text_11">
      <!-- 6 -->
      <g transform="translate(99 223.231531)scale(0.22 -0.22)">
       <use xlink:href="#SimHei-36"/>
      </g>
     </g>
    </g>
    <g id="ytick_5">
     <g id="line2d_11">
      <g>
       <use xlink:href="#m47f7049e74" x="117" y="138.096" style="stroke: #000000; stroke-width: 0.8"/>
      </g>
     </g>
     <g id="text_12">
      <!-- 8 -->
      <g transform="translate(99 145.615531)scale(0.22 -0.22)">
       <use xlink:href="#SimHei-38"/>
      </g>
     </g>
    </g>
    <g id="ytick_6">
     <g id="line2d_12">
      <g>
       <use xlink:href="#m47f7049e74" x="117" y="60.48" style="stroke: #000000; stroke-width: 0.8"/>
      </g>
     </g>
     <g id="text_13">
      <!-- 10 -->
      <g transform="translate(88 67.999531)scale(0.22 -0.22)">
       <use xlink:href="#SimHei-31"/>
       <use xlink:href="#SimHei-30" x="50"/>
      </g>
     </g>
    </g>
    <g id="text_14">
     <!-- 攻击目标数量 -->
     <g transform="translate(81.164062 320.52)rotate(-90)scale(0.22 -0.22)">
      <defs>
       <path id="SimHei-653b" d="M 1775 1100 
Q 2250 1225 2650 1350 
Q 2625 1125 2650 900 
Q 1800 675 1287 512 
Q 775 350 475 200 
Q 375 625 275 800 
Q 800 875 1325 1000 
L 1325 3950 
Q 725 3950 425 3925 
L 425 4375 
Q 775 4350 1125 4350 
L 1925 4350 
Q 2275 4350 2600 4375 
L 2600 3925 
Q 2300 3950 1775 3950 
L 1775 1100 
z
M 2275 -600 
Q 2150 -350 1900 -125 
Q 2500 0 3062 225 
Q 3625 450 3950 800 
Q 3675 1250 3475 1862 
Q 3275 2475 3100 3475 
Q 3300 3575 3550 3700 
Q 3700 2625 3900 2012 
Q 4100 1400 4275 1200 
Q 4525 1575 4662 2225 
Q 4800 2875 4900 3675 
L 3500 3675 
Q 3175 2775 2750 2075 
Q 2550 2425 2350 2525 
Q 2625 2850 2937 3562 
Q 3250 4275 3400 5175 
Q 3700 5075 4075 5025 
Q 3950 4900 3862 4637 
Q 3775 4375 3650 4050 
L 5300 4050 
Q 5675 4050 6075 4075 
L 6075 3650 
Q 5600 3675 5350 3675 
Q 5275 2775 5075 2025 
Q 4875 1275 4600 800 
Q 4850 550 5237 337 
Q 5625 125 6125 0 
Q 5900 -200 5800 -525 
Q 5450 -375 5050 -150 
Q 4650 75 4275 425 
Q 3750 -25 3250 -237 
Q 2750 -450 2275 -600 
z
" transform="scale(0.015625)"/>
       <path id="SimHei-51fb" d="M 1000 4075 
Q 1300 4050 1775 4025 
L 2975 4025 
L 2975 4525 
Q 2950 4750 2925 5000 
L 3500 5000 
Q 3450 4750 3450 4525 
L 3450 4025 
L 4675 4025 
Q 5100 4025 5450 4050 
L 5450 3600 
Q 5100 3625 4675 3625 
L 3450 3625 
L 3450 2650 
L 5250 2650 
Q 5725 2650 6050 2675 
L 6050 2225 
Q 5725 2250 5250 2250 
L 3450 2250 
L 3450 200 
L 4775 200 
L 4775 1200 
Q 4775 1450 4750 1750 
L 5300 1750 
Q 5250 1425 5250 1200 
L 5250 175 
Q 5250 -200 5275 -575 
L 4775 -575 
L 4775 -200 
L 1175 -200 
Q 1200 100 1200 425 
L 1200 1175 
Q 1200 1375 1175 1725 
L 1725 1725 
Q 1675 1375 1675 1175 
L 1675 200 
L 2975 200 
L 2975 2250 
L 1275 2250 
Q 750 2250 400 2225 
L 400 2675 
Q 750 2650 1250 2650 
L 2975 2650 
L 2975 3625 
L 1775 3625 
Q 1325 3625 1000 3600 
L 1000 4075 
z
" transform="scale(0.015625)"/>
       <path id="SimHei-76ee" d="M 1800 2950 
L 1800 1800 
L 4725 1800 
L 4725 2950 
L 1800 2950 
z
M 1800 1425 
L 1800 225 
L 4725 225 
L 4725 1425 
L 1800 1425 
z
M 1800 4425 
L 1800 3325 
L 4725 3325 
L 4725 4425 
L 1800 4425 
z
M 1250 4800 
L 5225 4800 
Q 5200 4100 5200 3450 
L 5200 525 
Q 5200 150 5225 -625 
L 4725 -625 
L 4725 -150 
L 1800 -150 
L 1800 -600 
L 1275 -600 
Q 1325 75 1325 475 
L 1325 3450 
Q 1300 4175 1250 4800 
z
" transform="scale(0.015625)"/>
       <path id="SimHei-6807" d="M 325 3800 
Q 700 3750 1175 3775 
L 1175 4375 
Q 1175 4775 1150 5150 
L 1675 5150 
Q 1625 4800 1625 4375 
L 1625 3775 
Q 2025 3775 2525 3800 
L 2525 3300 
Q 2025 3350 1625 3350 
L 1625 2275 
Q 1850 2400 2025 2525 
Q 2300 2125 2600 1650 
Q 2325 1525 2125 1375 
Q 1925 1850 1625 2275 
L 1625 450 
Q 1625 -75 1650 -600 
L 1150 -600 
Q 1175 -50 1175 450 
L 1175 2125 
Q 950 1450 575 775 
Q 450 1025 225 1225 
Q 550 1625 775 2212 
Q 1000 2800 1100 3350 
Q 675 3350 325 3300 
L 325 3800 
z
M 2825 4750 
Q 3175 4725 3600 4725 
L 4825 4725 
Q 5200 4725 5525 4750 
L 5525 4250 
Q 5200 4300 4825 4300 
L 3600 4300 
Q 3200 4300 2825 4250 
L 2825 4750 
z
M 2550 3175 
Q 2875 3150 3375 3150 
L 5150 3150 
Q 5550 3150 5925 3175 
L 5925 2700 
Q 5550 2725 5150 2725 
L 4350 2725 
L 4350 125 
Q 4350 -325 4137 -412 
Q 3925 -500 3450 -600 
Q 3400 -300 3250 0 
Q 3650 -25 3775 12 
Q 3900 50 3900 300 
L 3900 2725 
L 3375 2725 
Q 2850 2725 2550 2675 
L 2550 3175 
z
M 3025 2050 
Q 3300 1925 3575 1850 
Q 3450 1725 3187 1062 
Q 2925 400 2700 -50 
Q 2475 75 2200 175 
Q 2500 600 2712 1112 
Q 2925 1625 3025 2050 
z
M 4625 1775 
Q 4850 1900 5050 2075 
Q 5650 1275 6075 600 
Q 5825 475 5600 275 
Q 5175 1050 4625 1775 
z
" transform="scale(0.015625)"/>
       <path id="SimHei-6570" d="M 700 4850 
Q 950 4925 1100 5025 
Q 1300 4700 1475 4375 
Q 1250 4275 1075 4175 
Q 925 4550 700 4850 
z
M 2875 5025 
Q 3150 4900 3400 4800 
Q 3250 4700 3150 4525 
Q 3050 4350 2925 4125 
Q 2725 4225 2525 4275 
Q 2725 4600 2875 5025 
z
M 2450 3175 
Q 2675 3275 2825 3425 
Q 3125 3000 3325 2650 
Q 3100 2550 2900 2400 
Q 2700 2875 2450 3175 
z
M 525 3950 
Q 925 3925 1800 3925 
Q 1800 4650 1775 5175 
L 2275 5175 
Q 2250 4650 2250 3925 
Q 3075 3925 3450 3950 
L 3450 3500 
Q 3075 3525 2250 3525 
Q 2250 2950 2275 2525 
L 1775 2525 
Q 1800 2900 1800 3325 
Q 1675 3075 1387 2787 
Q 1100 2500 750 2300 
Q 650 2525 425 2675 
Q 650 2750 987 3000 
Q 1325 3250 1475 3525 
Q 950 3525 525 3500 
L 525 3950 
z
M 1725 1550 
Q 1600 1300 1450 1050 
Q 1750 975 2250 850 
Q 2425 1075 2575 1550 
L 1725 1550 
z
M 1550 2450 
Q 1825 2350 2100 2275 
Q 2000 2175 1875 1950 
L 2850 1950 
L 3125 1950 
Q 2975 1300 2700 725 
Q 3125 600 3375 525 
Q 3175 250 3075 25 
Q 2850 175 2400 350 
Q 1800 -250 600 -650 
Q 500 -400 300 -250 
Q 1375 0 2000 525 
Q 1300 700 850 825 
Q 1000 1025 1250 1550 
Q 850 1550 300 1525 
L 300 1975 
Q 775 1950 1400 1950 
Q 1475 2150 1550 2450 
z
M 4075 5150 
Q 4375 5025 4700 4975 
Q 4575 4825 4512 4625 
Q 4450 4425 4350 4050 
L 5475 4050 
Q 5700 4050 6050 4075 
L 6050 3625 
Q 5775 3650 5600 3650 
Q 5575 3125 5475 2262 
Q 5375 1400 5000 750 
Q 5250 400 5575 175 
Q 5900 -50 6150 -150 
Q 5800 -375 5700 -600 
Q 5275 -300 5075 -87 
Q 4875 125 4700 375 
Q 4400 75 4137 -125 
Q 3875 -325 3300 -650 
Q 3175 -425 2900 -250 
Q 3375 -75 3775 200 
Q 4175 475 4450 775 
Q 4175 1325 4025 1862 
Q 3875 2400 3850 2625 
Q 3800 2450 3725 2225 
Q 3500 2325 3225 2425 
Q 3525 2975 3775 3750 
Q 4025 4525 4075 5150 
z
M 4250 3650 
Q 4150 3400 4100 3237 
Q 4050 3075 4287 2350 
Q 4525 1625 4750 1225 
Q 4975 1825 5062 2475 
Q 5150 3125 5150 3650 
L 4250 3650 
z
" transform="scale(0.015625)"/>
       <path id="SimHei-91cf" d="M 3450 2175 
L 3450 1800 
L 4750 1800 
L 4750 2175 
L 3450 2175 
z
M 3450 1525 
L 3450 1175 
L 4750 1175 
L 4750 1525 
L 3450 1525 
z
M 1675 2175 
L 1675 1800 
L 3000 1800 
L 3000 2175 
L 1675 2175 
z
M 1675 1525 
L 1675 1175 
L 3000 1175 
L 3000 1525 
L 1675 1525 
z
M 1200 2450 
L 5250 2450 
Q 5200 2150 5200 1737 
Q 5200 1325 5250 900 
L 3450 900 
L 3450 500 
L 4600 500 
Q 5000 525 5375 525 
L 5375 175 
Q 5000 225 4600 225 
L 3450 225 
L 3450 -225 
L 5125 -225 
Q 5550 -200 5950 -200 
L 5950 -525 
Q 5550 -500 5125 -500 
L 1300 -500 
Q 900 -500 475 -525 
L 475 -200 
Q 925 -200 1300 -225 
L 3000 -225 
L 3000 225 
L 1750 225 
Q 1375 225 1000 175 
L 1000 525 
Q 1400 525 1750 500 
L 3000 500 
L 3000 900 
L 1200 900 
Q 1225 1300 1225 1712 
Q 1225 2125 1200 2450 
z
M 1675 4775 
L 1675 4350 
L 4750 4350 
L 4750 4775 
L 1675 4775 
z
M 1675 4075 
L 1675 3675 
L 4750 3675 
L 4750 4075 
L 1675 4075 
z
M 1200 5050 
L 5250 5050 
Q 5200 4650 5200 4300 
Q 5200 3950 5250 3400 
L 1200 3400 
Q 1225 3950 1212 4300 
Q 1200 4650 1200 5050 
z
M 475 3150 
Q 1100 3125 1750 3100 
L 4825 3100 
Q 5400 3125 5900 3150 
L 5900 2800 
Q 5400 2825 4850 2825 
L 1750 2825 
Q 1100 2825 475 2800 
L 475 3150 
z
" transform="scale(0.015625)"/>
      </defs>
      <use xlink:href="#SimHei-653b"/>
      <use xlink:href="#SimHei-51fb" x="100"/>
      <use xlink:href="#SimHei-76ee" x="200"/>
      <use xlink:href="#SimHei-6807" x="300"/>
      <use xlink:href="#SimHei-6570" x="400"/>
      <use xlink:href="#SimHei-91cf" x="500"/>
     </g>
    </g>
   </g>
   <g id="line2d_13">
    <path d="M 196.061273 60.48 
L 203.242 99.288 
L 210.422727 138.096 
L 217.603455 138.096 
L 224.784182 176.904 
L 231.964909 176.904 
L 239.145636 215.712 
L 246.326364 215.712 
L 253.507091 215.712 
L 260.687818 215.712 
L 267.868545 254.52 
L 275.049273 254.52 
L 282.23 254.52 
L 289.410727 254.52 
L 296.591455 254.52 
L 303.772182 293.328 
L 310.952909 293.328 
L 318.133636 293.328 
L 325.314364 293.328 
L 332.495091 293.328 
L 339.675818 293.328 
L 346.856545 293.328 
L 354.037273 293.328 
L 361.218 332.136 
L 368.398727 332.136 
L 375.579455 332.136 
L 382.760182 332.136 
L 389.940909 332.136 
L 397.121636 332.136 
L 404.302364 332.136 
L 411.483091 332.136 
L 418.663818 332.136 
L 425.844545 332.136 
L 433.025273 332.136 
L 440.206 332.136 
L 447.386727 332.136 
L 454.567455 332.136 
L 461.748182 332.136 
L 468.928909 332.136 
L 476.109636 332.136 
L 483.290364 370.944 
L 490.471091 370.944 
L 497.651818 370.944 
L 504.832545 370.944 
L 512.013273 370.944 
L 519.194 370.944 
L 526.374727 370.944 
L 533.555455 370.944 
L 540.736182 370.944 
L 547.916909 370.944 
L 555.097636 370.944 
L 562.278364 370.944 
L 569.459091 370.944 
L 576.639818 370.944 
L 583.820545 370.944 
L 591.001273 370.944 
L 598.182 370.944 
L 605.362727 370.944 
L 612.543455 370.944 
L 619.724182 370.944 
L 626.904909 370.944 
L 634.085636 370.944 
L 641.266364 370.944 
L 648.447091 370.944 
L 655.627818 370.944 
L 662.808545 370.944 
L 669.989273 370.944 
L 677.17 370.944 
L 684.350727 370.944 
L 691.531455 370.944 
L 698.712182 370.944 
L 705.892909 370.944 
L 713.073636 370.944 
L 720.254364 370.944 
L 727.435091 370.944 
L 734.615818 370.944 
L 741.796545 370.944 
L 748.977273 370.944 
L 756.158 370.944 
L 763.338727 370.944 
L 770.519455 370.944 
L 777.700182 370.944 
L 784.880909 370.944 
L 792.061636 370.944 
L 799.242364 370.944 
L 806.423091 370.944 
L 813.603818 370.944 
L 820.784545 370.944 
L 827.965273 370.944 
L 835.146 370.944 
" clip-path="url(#p0ca12c58fe)" style="fill: none; stroke: #1f77b4; stroke-width: 1.5; stroke-linecap: square"/>
   </g>
   <g id="patch_3">
    <path d="M 117 448.56 
L 117 60.48 
" style="fill: none; stroke: #000000; stroke-width: 0.8; stroke-linejoin: miter; stroke-linecap: square"/>
   </g>
   <g id="patch_4">
    <path d="M 842.4 448.56 
L 842.4 60.48 
" style="fill: none; stroke: #000000; stroke-width: 0.8; stroke-linejoin: miter; stroke-linecap: square"/>
   </g>
   <g id="patch_5">
    <path d="M 117 448.56 
L 842.4 448.56 
" style="fill: none; stroke: #000000; stroke-width: 0.8; stroke-linejoin: miter; stroke-linecap: square"/>
   </g>
   <g id="patch_6">
    <path d="M 117 60.48 
L 842.4 60.48 
" style="fill: none; stroke: #000000; stroke-width: 0.8; stroke-linejoin: miter; stroke-linecap: square"/>
   </g>
   <g id="text_15">
    <!-- 不同蜜罐仿真度下攻击收益开始降低时的攻击目标数量 -->
    <g transform="translate(162.9 54.48)scale(0.264 -0.264)">
     <defs>
      <path id="SimHei-4e0d" d="M 5225 4750 
Q 5550 4750 5925 4800 
L 5925 4250 
Q 5575 4300 5250 4300 
L 3950 4300 
Q 3700 3675 3400 3175 
L 3400 300 
Q 3400 -100 3450 -475 
L 2850 -475 
Q 2900 -125 2900 300 
L 2900 2625 
Q 1875 1550 850 925 
Q 625 1275 400 1400 
Q 1025 1600 1900 2325 
Q 2775 3050 3350 4300 
L 1425 4300 
Q 950 4300 525 4275 
L 525 4800 
Q 1175 4750 1575 4750 
L 5225 4750 
z
M 6000 1400 
Q 5650 1175 5500 975 
Q 5100 1475 3825 2700 
Q 4075 2850 4250 3075 
Q 4925 2475 5212 2175 
Q 5500 1875 6000 1400 
z
" transform="scale(0.015625)"/>
      <path id="SimHei-540c" d="M 1700 3675 
Q 1950 3650 2500 3650 
L 4025 3650 
Q 4475 3650 4675 3675 
L 4675 3200 
Q 4450 3225 4000 3225 
L 2475 3225 
Q 1925 3225 1700 3200 
L 1700 3675 
z
M 2075 2525 
L 4275 2525 
Q 4250 2225 4250 1687 
Q 4250 1150 4275 800 
L 2075 800 
Q 2075 1175 2075 1725 
Q 2075 2275 2075 2525 
z
M 2550 2100 
L 2550 1225 
L 3775 1225 
L 3775 2100 
L 2550 2100 
z
M 750 4800 
L 5625 4800 
Q 5600 4450 5600 3875 
L 5600 -25 
Q 5600 -350 5362 -437 
Q 5125 -525 4600 -575 
Q 4600 -350 4400 -25 
Q 4800 -50 4937 -37 
Q 5075 -25 5100 225 
L 5100 4350 
L 1275 4350 
L 1275 -550 
L 725 -550 
Q 750 -200 775 225 
L 775 3875 
Q 775 4475 750 4800 
z
" transform="scale(0.015625)"/>
      <path id="SimHei-4e0b" d="M 400 4775 
Q 875 4750 1375 4750 
L 4950 4750 
Q 5400 4750 5900 4775 
L 5900 4250 
Q 5375 4275 4975 4275 
L 3250 4275 
L 3250 400 
Q 3250 50 3275 -450 
L 2700 -450 
Q 2725 0 2725 400 
L 2725 4275 
L 1375 4275 
Q 875 4275 400 4250 
L 400 4775 
z
M 4000 3300 
Q 4750 2700 5600 1725 
Q 5300 1525 5125 1300 
Q 4700 1825 3575 2900 
Q 3775 3075 4000 3300 
z
" transform="scale(0.015625)"/>
      <path id="SimHei-6536" d="M 3575 5075 
Q 3900 4950 4225 4875 
Q 4050 4650 3925 4350 
Q 3800 4050 3725 3825 
L 5125 3825 
Q 5625 3825 6075 3850 
L 6075 3375 
Q 5625 3400 5275 3400 
Q 5225 2625 5025 1987 
Q 4825 1350 4525 825 
Q 4825 500 5200 312 
Q 5575 125 6000 0 
Q 5625 -125 5525 -475 
Q 5125 -300 4825 -87 
Q 4525 125 4200 450 
Q 3600 -200 2900 -600 
Q 2750 -350 2450 -200 
Q 3250 125 3875 800 
Q 3625 1200 3475 1637 
Q 3325 2075 3225 2600 
Q 3025 2225 2875 2050 
Q 2700 2225 2425 2300 
Q 2825 2800 3162 3637 
Q 3500 4475 3575 5075 
z
M 3575 3400 
Q 3425 3075 3275 2750 
Q 3500 2775 3750 2850 
Q 3750 2475 3875 2037 
Q 4000 1600 4200 1225 
Q 4700 2125 4800 3400 
L 3575 3400 
z
M 575 4250 
L 1100 4250 
Q 1050 3925 1050 3425 
L 1050 1550 
L 1775 1700 
L 1775 4400 
Q 1775 4750 1750 5125 
L 2275 5125 
Q 2225 4825 2225 4425 
L 2225 275 
Q 2225 -50 2250 -550 
L 1750 -550 
Q 1775 -50 1775 275 
L 1775 1275 
Q 750 975 625 850 
Q 500 1100 350 1325 
Q 600 1450 600 1775 
L 600 3550 
Q 600 3900 575 4250 
z
" transform="scale(0.015625)"/>
      <path id="SimHei-76ca" d="M 1825 4900 
Q 2025 4975 2275 5100 
Q 2475 4750 2750 4200 
Q 2550 4125 2275 3975 
Q 2025 4475 1825 4900 
z
M 4075 5125 
Q 4350 5025 4675 4925 
Q 4525 4775 4412 4525 
Q 4300 4275 4150 3975 
L 4575 3975 
Q 5275 3975 5800 4000 
L 5800 3575 
Q 5275 3600 4575 3600 
L 2050 3600 
Q 1450 3600 675 3575 
L 675 4000 
Q 1275 3975 2050 3975 
L 3625 3975 
Q 3725 4200 3837 4512 
Q 3950 4825 4075 5125 
z
M 2375 3375 
Q 2600 3125 2875 2900 
Q 2475 2750 2075 2487 
Q 1675 2225 1200 2000 
L 5200 2000 
Q 5175 1625 5175 1075 
L 5175 75 
Q 5700 75 6075 100 
L 6075 -375 
Q 5625 -350 5175 -350 
L 1425 -350 
Q 825 -350 375 -375 
L 375 100 
Q 725 75 1275 75 
L 1275 1125 
Q 1275 1700 1250 2025 
Q 1100 1925 925 1825 
Q 750 2075 525 2275 
Q 900 2400 1400 2662 
Q 1900 2925 2375 3375 
z
M 3600 2875 
Q 3725 3050 3875 3325 
Q 4325 3150 4837 2925 
Q 5350 2700 5800 2525 
Q 5600 2325 5450 2025 
Q 4950 2325 4462 2537 
Q 3975 2750 3600 2875 
z
M 1700 1625 
L 1700 75 
L 2425 75 
L 2425 1625 
L 1700 1625 
z
M 2850 1625 
L 2850 75 
L 3575 75 
L 3575 1625 
L 2850 1625 
z
M 4000 1625 
L 4000 75 
L 4750 75 
L 4750 1625 
L 4000 1625 
z
" transform="scale(0.015625)"/>
      <path id="SimHei-5f00" d="M 2225 2475 
L 2225 4225 
Q 1500 4225 875 4200 
L 875 4675 
Q 1475 4650 2000 4650 
L 4600 4650 
Q 5075 4650 5625 4675 
L 5625 4200 
Q 5100 4225 4450 4225 
L 4450 2475 
L 4925 2475 
Q 5400 2475 5950 2500 
L 5950 2025 
Q 5400 2050 4925 2050 
L 4450 2050 
L 4450 775 
Q 4450 200 4475 -550 
L 3925 -550 
Q 3950 200 3950 775 
L 3950 2050 
L 2725 2050 
Q 2675 1600 2550 1212 
Q 2425 825 2162 425 
Q 1900 25 1175 -550 
Q 975 -325 600 -150 
Q 1075 50 1425 387 
Q 1775 725 1975 1187 
Q 2175 1650 2200 2050 
L 1650 2050 
Q 1025 2050 450 2000 
L 450 2500 
Q 1050 2475 1650 2475 
L 2225 2475 
z
M 2725 4225 
L 2725 2475 
L 3950 2475 
L 3950 4225 
L 2725 4225 
z
" transform="scale(0.015625)"/>
      <path id="SimHei-59cb" d="M 1225 5075 
Q 1600 4950 1875 4900 
Q 1725 4650 1662 4400 
Q 1600 4150 1525 3775 
L 2600 3775 
Q 2550 3425 2362 2512 
Q 2175 1600 1975 1125 
Q 2275 925 2700 500 
Q 2525 375 2350 125 
Q 2025 550 1775 700 
Q 1550 350 1287 25 
Q 1025 -300 750 -575 
Q 625 -400 300 -225 
Q 600 -25 875 275 
Q 1150 575 1425 1025 
Q 875 1425 575 1600 
Q 675 1950 800 2425 
Q 925 2900 1000 3350 
Q 700 3350 400 3325 
L 400 3800 
Q 725 3775 1075 3775 
Q 1250 4675 1225 5075 
z
M 1450 3350 
Q 1350 2900 1262 2550 
Q 1175 2200 1075 1800 
Q 1450 1550 1600 1400 
Q 1825 1975 1925 2437 
Q 2025 2900 2075 3350 
L 1450 3350 
z
M 4025 5125 
Q 4225 4975 4675 4875 
Q 4400 4650 4137 4250 
Q 3875 3850 3425 3175 
Q 3925 3175 4287 3187 
Q 4650 3200 5175 3225 
Q 4900 3650 4650 3875 
Q 4850 3975 5050 4175 
Q 5750 3300 6100 2875 
Q 5950 2800 5650 2550 
Q 5525 2775 5400 2875 
Q 4600 2850 3987 2787 
Q 3375 2725 2925 2600 
Q 2875 2825 2725 3100 
Q 2950 3225 3375 3825 
Q 3800 4425 4025 5125 
z
M 2950 2025 
L 5650 2025 
Q 5625 1650 5625 712 
Q 5625 -225 5650 -550 
L 5150 -550 
L 5150 -25 
L 3450 -25 
L 3450 -575 
L 2950 -575 
Q 2975 -200 2975 725 
Q 2975 1650 2950 2025 
z
M 3450 1600 
L 3450 400 
L 5150 400 
L 5150 1600 
L 3450 1600 
z
" transform="scale(0.015625)"/>
      <path id="SimHei-964d" d="M 550 4900 
L 2375 4900 
Q 2250 4600 2050 4012 
Q 1850 3425 1700 2950 
Q 2100 2425 2225 2150 
Q 2350 1875 2312 1537 
Q 2275 1200 2037 1012 
Q 1800 825 1400 775 
Q 1350 1025 1200 1325 
Q 1675 1300 1762 1500 
Q 1850 1700 1812 1937 
Q 1775 2175 1250 2900 
Q 1350 3150 1487 3562 
Q 1625 3975 1750 4500 
L 1025 4500 
L 1025 -575 
L 550 -575 
Q 575 325 575 875 
L 575 3700 
Q 575 4275 550 4900 
z
M 3500 5225 
Q 3925 5050 4075 4975 
Q 3850 4725 3775 4575 
L 5600 4575 
Q 5375 4125 5150 3800 
Q 4925 3475 4625 3175 
Q 4850 3025 5225 2950 
Q 5600 2875 6125 2850 
Q 5975 2525 5950 2325 
Q 5300 2475 4900 2612 
Q 4500 2750 4250 2925 
Q 3875 2700 3550 2550 
Q 3225 2400 2600 2175 
Q 2525 2375 2325 2625 
Q 2800 2700 3162 2825 
Q 3525 2950 3875 3175 
Q 3575 3500 3350 3850 
Q 3050 3375 2925 3225 
Q 2750 3400 2525 3525 
Q 2800 3775 3037 4162 
Q 3275 4550 3500 5225 
z
M 3550 4200 
Q 4000 3600 4225 3400 
Q 4625 3725 4850 4200 
L 3550 4200 
z
M 4550 2525 
Q 4525 2125 4525 1975 
L 5050 1975 
Q 5225 1975 5675 2000 
L 5675 1550 
Q 5400 1575 5100 1575 
L 4550 1575 
L 4550 825 
L 5150 825 
Q 5525 825 5875 850 
L 5875 400 
Q 5550 425 5175 425 
L 4550 425 
L 4550 50 
Q 4550 -300 4575 -575 
L 4075 -575 
Q 4100 -275 4100 25 
L 4100 425 
L 2600 425 
Q 2725 1025 2725 1325 
L 3225 1250 
Q 3125 950 3125 825 
L 4100 825 
L 4100 1575 
L 3475 1575 
Q 3100 1575 2775 1550 
L 2775 2000 
Q 3225 1975 3475 1975 
L 4100 1975 
Q 4100 2275 4075 2525 
L 4550 2525 
z
" transform="scale(0.015625)"/>
      <path id="SimHei-4f4e" d="M 2500 3700 
Q 2500 4000 2475 4500 
Q 2925 4500 3725 4575 
Q 4525 4650 5250 4925 
Q 5350 4650 5600 4375 
Q 5250 4325 4475 4225 
Q 4475 3800 4525 2850 
L 5125 2850 
Q 5550 2850 5950 2875 
L 5950 2450 
Q 5550 2475 5150 2475 
L 4575 2475 
Q 4650 1275 4925 800 
Q 5200 325 5362 225 
Q 5525 125 5575 287 
Q 5625 450 5675 825 
Q 5925 575 6150 525 
Q 6025 25 5837 -225 
Q 5650 -475 5375 -425 
Q 5100 -375 4662 312 
Q 4225 1000 4125 2475 
L 2975 2475 
L 2975 575 
Q 3375 900 3675 1250 
Q 3725 875 3825 675 
Q 2875 -50 2650 -375 
Q 2475 -150 2275 75 
Q 2425 250 2500 525 
L 2500 3700 
z
M 2975 4100 
L 2975 2850 
L 4075 2850 
Q 4025 3750 4025 4175 
Q 3275 4125 2975 4100 
z
M 4525 -250 
Q 4325 -325 4075 -400 
Q 3950 100 3825 400 
Q 4075 450 4275 550 
Q 4475 50 4525 -250 
z
M 1425 5150 
Q 1575 5075 2050 4950 
Q 1900 4750 1625 3775 
L 1625 475 
Q 1625 0 1650 -600 
L 1100 -600 
Q 1150 0 1150 500 
L 1150 2925 
Q 925 2500 675 2100 
Q 450 2325 275 2400 
Q 625 2825 962 3587 
Q 1300 4350 1425 5150 
z
" transform="scale(0.015625)"/>
      <path id="SimHei-65f6" d="M 2800 3825 
Q 3550 3800 4775 3800 
Q 4775 4550 4750 5200 
L 5275 5200 
Q 5250 4550 5250 3800 
Q 5600 3800 6000 3825 
L 6000 3350 
Q 5600 3375 5250 3375 
L 5250 25 
Q 5250 -350 4962 -450 
Q 4675 -550 4225 -600 
Q 4225 -300 3975 -25 
Q 4425 -75 4600 -50 
Q 4775 -25 4775 275 
L 4775 3375 
Q 3600 3375 2800 3350 
L 2800 3825 
z
M 3075 2475 
Q 3300 2575 3525 2700 
Q 3825 2175 4125 1575 
Q 3875 1500 3625 1350 
Q 3425 1950 3075 2475 
z
M 625 4550 
L 2575 4550 
Q 2550 3650 2550 2375 
Q 2550 1100 2575 375 
L 2075 375 
L 2075 850 
L 1125 850 
L 1125 25 
L 625 25 
Q 650 1175 650 2337 
Q 650 3500 625 4550 
z
M 1125 4125 
L 1125 2950 
L 2075 2950 
L 2075 4125 
L 1125 4125 
z
M 1125 2525 
L 1125 1275 
L 2075 1275 
L 2075 2525 
L 1125 2525 
z
" transform="scale(0.015625)"/>
      <path id="SimHei-7684" d="M 1525 5100 
Q 1850 5025 2200 4925 
Q 2100 4775 2025 4487 
Q 1950 4200 1900 3975 
L 2975 3975 
Q 2950 3525 2950 2900 
L 2950 700 
Q 2950 300 2975 -225 
L 2500 -225 
L 2500 300 
L 1200 300 
L 1200 -275 
L 725 -275 
Q 750 350 750 650 
L 750 2875 
Q 750 3525 725 3975 
L 1425 3975 
Q 1450 4225 1475 4462 
Q 1500 4700 1525 5100 
z
M 1200 3525 
L 1200 2425 
L 2500 2425 
L 2500 3525 
L 1200 3525 
z
M 1200 1950 
L 1200 775 
L 2500 775 
L 2500 1950 
L 1200 1950 
z
M 5850 3925 
Q 5800 3450 5775 3000 
L 5600 175 
Q 5525 -275 5150 -400 
Q 4775 -525 4350 -550 
Q 4350 -275 4175 25 
Q 4600 0 4850 37 
Q 5100 75 5150 350 
L 5350 3475 
L 4025 3475 
Q 3825 3050 3550 2525 
Q 3350 2675 3125 2775 
Q 3275 3000 3462 3400 
Q 3650 3800 3787 4262 
Q 3925 4725 3975 5025 
Q 4300 4875 4600 4800 
Q 4475 4600 4375 4387 
Q 4275 4175 4200 3925 
L 5850 3925 
z
M 3650 2300 
Q 3825 2400 4075 2550 
Q 4200 2325 4325 2050 
Q 4450 1775 4600 1375 
Q 4400 1300 4150 1150 
Q 4075 1425 3937 1750 
Q 3800 2075 3650 2300 
z
" transform="scale(0.015625)"/>
     </defs>
     <use xlink:href="#SimHei-4e0d"/>
     <use xlink:href="#SimHei-540c" x="100"/>
     <use xlink:href="#SimHei-871c" x="200"/>
     <use xlink:href="#SimHei-7f50" x="300"/>
     <use xlink:href="#SimHei-4eff" x="400"/>
     <use xlink:href="#SimHei-771f" x="500"/>
     <use xlink:href="#SimHei-5ea6" x="600"/>
     <use xlink:href="#SimHei-4e0b" x="700"/>
     <use xlink:href="#SimHei-653b" x="800"/>
     <use xlink:href="#SimHei-51fb" x="900"/>
     <use xlink:href="#SimHei-6536" x="1000"/>
     <use xlink:href="#SimHei-76ca" x="1100"/>
     <use xlink:href="#SimHei-5f00" x="1200"/>
     <use xlink:href="#SimHei-59cb" x="1300"/>
     <use xlink:href="#SimHei-964d" x="1400"/>
     <use xlink:href="#SimHei-4f4e" x="1500"/>
     <use xlink:href="#SimHei-65f6" x="1600"/>
     <use xlink:href="#SimHei-7684" x="1700"/>
     <use xlink:href="#SimHei-653b" x="1800"/>
     <use xlink:href="#SimHei-51fb" x="1900"/>
     <use xlink:href="#SimHei-76ee" x="2000"/>
     <use xlink:href="#SimHei-6807" x="2100"/>
     <use xlink:href="#SimHei-6570" x="2200"/>
     <use xlink:href="#SimHei-91cf" x="2300"/>
    </g>
   </g>
   <g id="legend_1">
    <g id="patch_7">
     <path d="M 492.6 109.36125 
L 827 109.36125 
Q 831.4 109.36125 831.4 104.96125 
L 831.4 75.88 
Q 831.4 71.48 827 71.48 
L 492.6 71.48 
Q 488.2 71.48 488.2 75.88 
L 488.2 104.96125 
Q 488.2 109.36125 492.6 109.36125 
z
" style="fill: #ffffff; opacity: 0.8; stroke: #cccccc; stroke-linejoin: miter"/>
    </g>
    <g id="line2d_14">
     <path d="M 497 90.025313 
L 519 90.025313 
L 541 90.025313 
" style="fill: none; stroke: #1f77b4; stroke-width: 1.5; stroke-linecap: square"/>
    </g>
    <g id="text_16">
     <!-- 不同仿真度蜜罐的最大收益 -->
     <g transform="translate(558.6 97.725313)scale(0.22 -0.22)">
      <defs>
       <path id="SimHei-6700" d="M 1550 2500 
L 1550 2050 
L 2625 2050 
L 2625 2500 
L 1550 2500 
z
M 1550 1700 
L 1550 1275 
L 2625 1275 
L 2625 1700 
L 1550 1700 
z
M 1550 925 
L 1550 425 
L 2625 575 
L 2625 925 
L 1550 925 
z
M 650 -225 
Q 550 50 475 300 
Q 675 300 1100 350 
L 1100 2500 
Q 800 2500 425 2475 
L 425 2875 
Q 800 2850 1125 2850 
L 5050 2850 
Q 5500 2850 5900 2875 
L 5900 2475 
Q 5500 2500 5050 2500 
L 3075 2500 
L 3075 675 
Q 3225 700 3400 750 
Q 3400 550 3400 325 
Q 3225 325 3075 275 
Q 3075 -125 3100 -500 
L 2625 -500 
Q 2625 -125 2625 225 
Q 2350 175 1800 62 
Q 1250 -50 650 -225 
z
M 3600 -600 
Q 3475 -450 3250 -225 
Q 3550 -125 3762 12 
Q 3975 150 4175 375 
Q 4025 500 3850 762 
Q 3675 1025 3500 1725 
Q 3650 1725 3900 1750 
Q 3975 1100 4425 675 
Q 4575 875 4687 1150 
Q 4800 1425 4875 1700 
L 4125 1700 
Q 3775 1700 3300 1675 
L 3300 2075 
Q 3775 2050 4125 2050 
L 5400 2050 
Q 5250 1450 5100 1087 
Q 4950 725 4750 425 
Q 4950 300 5200 200 
Q 5450 100 5925 25 
Q 5800 -150 5700 -450 
Q 5275 -300 5000 -162 
Q 4725 -25 4500 125 
Q 4325 -50 4150 -200 
Q 3975 -350 3600 -600 
z
M 1775 4675 
L 1775 4325 
L 4625 4325 
L 4625 4675 
L 1775 4675 
z
M 1775 3975 
L 1775 3650 
L 4625 3650 
L 4625 3975 
L 1775 3975 
z
M 1275 5025 
L 5125 5025 
Q 5100 4675 5100 4400 
L 5100 3950 
Q 5100 3675 5125 3300 
L 1275 3300 
Q 1300 3675 1300 3950 
L 1300 4400 
Q 1300 4675 1275 5025 
z
" transform="scale(0.015625)"/>
       <path id="SimHei-5927" d="M 675 3475 
Q 1050 3450 1600 3425 
L 2925 3425 
Q 2925 4225 2912 4525 
Q 2900 4825 2875 5100 
Q 3175 5050 3525 5025 
Q 3450 4775 3425 4312 
Q 3400 3850 3400 3425 
L 4800 3425 
Q 5250 3450 5775 3475 
L 5775 2950 
Q 5250 2975 4800 2975 
L 3425 2975 
Q 3475 2425 3650 2025 
Q 3825 1625 4162 1262 
Q 4500 900 4937 587 
Q 5375 275 5900 75 
Q 5625 -150 5450 -500 
Q 5075 -275 4737 -12 
Q 4400 250 4125 550 
Q 3850 850 3612 1225 
Q 3375 1600 3200 2025 
Q 3000 1550 2800 1212 
Q 2600 875 2325 587 
Q 2050 300 1687 25 
Q 1325 -250 800 -550 
Q 625 -275 375 -25 
Q 950 175 1400 475 
Q 1850 775 2175 1175 
Q 2500 1575 2687 2037 
Q 2875 2500 2900 2975 
L 1600 2975 
Q 1050 2975 675 2950 
L 675 3475 
z
" transform="scale(0.015625)"/>
      </defs>
      <use xlink:href="#SimHei-4e0d"/>
      <use xlink:href="#SimHei-540c" x="100"/>
      <use xlink:href="#SimHei-4eff" x="200"/>
      <use xlink:href="#SimHei-771f" x="300"/>
      <use xlink:href="#SimHei-5ea6" x="400"/>
      <use xlink:href="#SimHei-871c" x="500"/>
      <use xlink:href="#SimHei-7f50" x="600"/>
      <use xlink:href="#SimHei-7684" x="700"/>
      <use xlink:href="#SimHei-6700" x="800"/>
      <use xlink:href="#SimHei-5927" x="900"/>
      <use xlink:href="#SimHei-6536" x="1000"/>
      <use xlink:href="#SimHei-76ca" x="1100"/>
     </g>
    </g>
   </g>
  </g>
 </g>
 <defs>
  <clipPath id="p0ca12c58fe">
   <rect x="117" y="60.48" width="725.4" height="388.08"/>
  </clipPath>
 </defs>
</svg>
