<?xml version="1.0" encoding="utf-8" standalone="no"?>
<!DOCTYPE svg PUBLIC "-//W3C//DTD SVG 1.1//EN"
  "http://www.w3.org/Graphics/SVG/1.1/DTD/svg11.dtd">
<svg xmlns:xlink="http://www.w3.org/1999/xlink" width="936pt" height="504pt" viewBox="0 0 936 504" xmlns="http://www.w3.org/2000/svg" version="1.1">
 <metadata>
  <rdf:RDF xmlns:dc="http://purl.org/dc/elements/1.1/" xmlns:cc="http://creativecommons.org/ns#" xmlns:rdf="http://www.w3.org/1999/02/22-rdf-syntax-ns#">
   <cc:Work>
    <dc:type rdf:resource="http://purl.org/dc/dcmitype/StillImage"/>
    <dc:date>2023-06-30T22:21:07.429200</dc:date>
    <dc:format>image/svg+xml</dc:format>
    <dc:creator>
     <cc:Agent>
      <dc:title>Matplotlib v3.5.1, https://matplotlib.org/</dc:title>
     </cc:Agent>
    </dc:creator>
   </cc:Work>
  </rdf:RDF>
 </metadata>
 <defs>
  <style type="text/css">*{stroke-linejoin: round; stroke-linecap: butt}</style>
 </defs>
 <g id="figure_1">
  <g id="patch_1">
   <path d="M 0 504 
L 936 504 
L 936 0 
L 0 0 
z
" style="fill: #ffffff"/>
  </g>
  <g id="axes_1">
   <g id="patch_2">
    <path d="M 117 448.56 
L 842.4 448.56 
L 842.4 60.48 
L 117 60.48 
z
" style="fill: #ffffff"/>
   </g>
   <g id="matplotlib.axis_1">
    <g id="xtick_1">
     <g id="line2d_1">
      <defs>
       <path id="m6ff404accd" d="M 0 0 
L 0 3.5 
" style="stroke: #000000; stroke-width: 0.8"/>
      </defs>
      <g>
       <use xlink:href="#m6ff404accd" x="117" y="448.56" style="stroke: #000000; stroke-width: 0.8"/>
      </g>
     </g>
     <g id="text_1">
      <!-- 0 -->
      <g transform="translate(111.5 470.599063)scale(0.22 -0.22)">
       <defs>
        <path id="SimHei-30" d="M 2975 2250 
Q 2975 1350 2650 700 
Q 2325 50 1600 50 
Q 875 50 537 700 
Q 200 1350 200 2250 
Q 200 3150 537 3787 
Q 875 4425 1600 4425 
Q 2325 4425 2650 3787 
Q 2975 3150 2975 2250 
z
M 2375 2250 
Q 2375 3050 2187 3500 
Q 2000 3950 1600 3950 
Q 1200 3950 1000 3500 
Q 800 3050 800 2250 
Q 800 1450 1000 987 
Q 1200 525 1600 525 
Q 2000 525 2187 987 
Q 2375 1450 2375 2250 
z
" transform="scale(0.015625)"/>
       </defs>
       <use xlink:href="#SimHei-30"/>
      </g>
     </g>
    </g>
    <g id="xtick_2">
     <g id="line2d_2">
      <g>
       <use xlink:href="#m6ff404accd" x="262.08" y="448.56" style="stroke: #000000; stroke-width: 0.8"/>
      </g>
     </g>
     <g id="text_2">
      <!-- 1 -->
      <g transform="translate(256.58 470.599063)scale(0.22 -0.22)">
       <defs>
        <path id="SimHei-31" d="M 1950 100 
L 1375 100 
L 1375 3425 
L 625 3425 
L 625 3725 
Q 1075 3725 1325 3900 
Q 1575 4075 1650 4425 
L 1950 4425 
L 1950 100 
z
" transform="scale(0.015625)"/>
       </defs>
       <use xlink:href="#SimHei-31"/>
      </g>
     </g>
    </g>
    <g id="xtick_3">
     <g id="line2d_3">
      <g>
       <use xlink:href="#m6ff404accd" x="407.16" y="448.56" style="stroke: #000000; stroke-width: 0.8"/>
      </g>
     </g>
     <g id="text_3">
      <!-- 2 -->
      <g transform="translate(401.66 470.599063)scale(0.22 -0.22)">
       <defs>
        <path id="SimHei-32" d="M 2850 100 
L 300 100 
L 300 500 
Q 450 900 712 1237 
Q 975 1575 1475 2000 
Q 1850 2325 2012 2600 
Q 2175 2875 2175 3200 
Q 2175 3525 2037 3737 
Q 1900 3950 1600 3950 
Q 1350 3950 1162 3725 
Q 975 3500 975 2925 
L 400 2925 
Q 425 3650 737 4037 
Q 1050 4425 1625 4425 
Q 2175 4425 2475 4087 
Q 2775 3750 2775 3175 
Q 2775 2700 2500 2350 
Q 2225 2000 1825 1650 
Q 1375 1250 1200 1050 
Q 1025 850 875 575 
L 2850 575 
L 2850 100 
z
" transform="scale(0.015625)"/>
       </defs>
       <use xlink:href="#SimHei-32"/>
      </g>
     </g>
    </g>
    <g id="xtick_4">
     <g id="line2d_4">
      <g>
       <use xlink:href="#m6ff404accd" x="552.24" y="448.56" style="stroke: #000000; stroke-width: 0.8"/>
      </g>
     </g>
     <g id="text_4">
      <!-- 3 -->
      <g transform="translate(546.74 470.599063)scale(0.22 -0.22)">
       <defs>
        <path id="SimHei-33" d="M 2825 1300 
Q 2825 725 2462 387 
Q 2100 50 1550 50 
Q 1000 50 637 387 
Q 275 725 275 1425 
L 850 1425 
Q 850 950 1037 737 
Q 1225 525 1550 525 
Q 1875 525 2050 725 
Q 2225 925 2225 1350 
Q 2225 1700 2037 1900 
Q 1850 2100 1375 2100 
L 1375 2525 
Q 1775 2525 1962 2725 
Q 2150 2925 2150 3325 
Q 2150 3625 2012 3800 
Q 1875 3975 1575 3975 
Q 1275 3975 1112 3762 
Q 950 3550 925 3150 
L 375 3150 
Q 425 3725 737 4075 
Q 1050 4425 1575 4425 
Q 2125 4425 2425 4112 
Q 2725 3800 2725 3350 
Q 2725 2925 2575 2687 
Q 2425 2450 2075 2325 
Q 2425 2250 2625 1975 
Q 2825 1700 2825 1300 
z
" transform="scale(0.015625)"/>
       </defs>
       <use xlink:href="#SimHei-33"/>
      </g>
     </g>
    </g>
    <g id="xtick_5">
     <g id="line2d_5">
      <g>
       <use xlink:href="#m6ff404accd" x="697.32" y="448.56" style="stroke: #000000; stroke-width: 0.8"/>
      </g>
     </g>
     <g id="text_5">
      <!-- 4 -->
      <g transform="translate(691.82 470.599063)scale(0.22 -0.22)">
       <defs>
        <path id="SimHei-34" d="M 2975 1200 
L 2450 1200 
L 2450 100 
L 1875 100 
L 1875 1200 
L 200 1200 
L 200 1675 
L 1875 4425 
L 2450 4425 
L 2450 1675 
L 2975 1675 
L 2975 1200 
z
M 1875 1675 
L 1875 3525 
L 750 1675 
L 1875 1675 
z
" transform="scale(0.015625)"/>
       </defs>
       <use xlink:href="#SimHei-34"/>
      </g>
     </g>
    </g>
    <g id="xtick_6">
     <g id="line2d_6">
      <g>
       <use xlink:href="#m6ff404accd" x="842.4" y="448.56" style="stroke: #000000; stroke-width: 0.8"/>
      </g>
     </g>
     <g id="text_6">
      <!-- 5 -->
      <g transform="translate(836.9 470.599063)scale(0.22 -0.22)">
       <defs>
        <path id="SimHei-35" d="M 2825 1650 
Q 2825 900 2462 475 
Q 2100 50 1500 50 
Q 975 50 637 400 
Q 300 750 275 1350 
L 850 1350 
Q 850 975 1025 750 
Q 1200 525 1525 525 
Q 1850 525 2037 800 
Q 2225 1075 2225 1650 
Q 2225 2150 2062 2387 
Q 1900 2625 1625 2625 
Q 1400 2625 1237 2525 
Q 1075 2425 925 2175 
L 425 2175 
L 575 4375 
L 2725 4375 
L 2725 3900 
L 1050 3900 
L 950 2750 
Q 1100 2900 1275 2975 
Q 1450 3050 1750 3050 
Q 2225 3050 2525 2687 
Q 2825 2325 2825 1650 
z
" transform="scale(0.015625)"/>
       </defs>
       <use xlink:href="#SimHei-35"/>
      </g>
     </g>
    </g>
    <g id="text_7">
     <!-- 攻击目标数量 -->
     <g transform="translate(413.7 494.6225)scale(0.22 -0.22)">
      <defs>
       <path id="SimHei-653b" d="M 1775 1100 
Q 2250 1225 2650 1350 
Q 2625 1125 2650 900 
Q 1800 675 1287 512 
Q 775 350 475 200 
Q 375 625 275 800 
Q 800 875 1325 1000 
L 1325 3950 
Q 725 3950 425 3925 
L 425 4375 
Q 775 4350 1125 4350 
L 1925 4350 
Q 2275 4350 2600 4375 
L 2600 3925 
Q 2300 3950 1775 3950 
L 1775 1100 
z
M 2275 -600 
Q 2150 -350 1900 -125 
Q 2500 0 3062 225 
Q 3625 450 3950 800 
Q 3675 1250 3475 1862 
Q 3275 2475 3100 3475 
Q 3300 3575 3550 3700 
Q 3700 2625 3900 2012 
Q 4100 1400 4275 1200 
Q 4525 1575 4662 2225 
Q 4800 2875 4900 3675 
L 3500 3675 
Q 3175 2775 2750 2075 
Q 2550 2425 2350 2525 
Q 2625 2850 2937 3562 
Q 3250 4275 3400 5175 
Q 3700 5075 4075 5025 
Q 3950 4900 3862 4637 
Q 3775 4375 3650 4050 
L 5300 4050 
Q 5675 4050 6075 4075 
L 6075 3650 
Q 5600 3675 5350 3675 
Q 5275 2775 5075 2025 
Q 4875 1275 4600 800 
Q 4850 550 5237 337 
Q 5625 125 6125 0 
Q 5900 -200 5800 -525 
Q 5450 -375 5050 -150 
Q 4650 75 4275 425 
Q 3750 -25 3250 -237 
Q 2750 -450 2275 -600 
z
" transform="scale(0.015625)"/>
       <path id="SimHei-51fb" d="M 1000 4075 
Q 1300 4050 1775 4025 
L 2975 4025 
L 2975 4525 
Q 2950 4750 2925 5000 
L 3500 5000 
Q 3450 4750 3450 4525 
L 3450 4025 
L 4675 4025 
Q 5100 4025 5450 4050 
L 5450 3600 
Q 5100 3625 4675 3625 
L 3450 3625 
L 3450 2650 
L 5250 2650 
Q 5725 2650 6050 2675 
L 6050 2225 
Q 5725 2250 5250 2250 
L 3450 2250 
L 3450 200 
L 4775 200 
L 4775 1200 
Q 4775 1450 4750 1750 
L 5300 1750 
Q 5250 1425 5250 1200 
L 5250 175 
Q 5250 -200 5275 -575 
L 4775 -575 
L 4775 -200 
L 1175 -200 
Q 1200 100 1200 425 
L 1200 1175 
Q 1200 1375 1175 1725 
L 1725 1725 
Q 1675 1375 1675 1175 
L 1675 200 
L 2975 200 
L 2975 2250 
L 1275 2250 
Q 750 2250 400 2225 
L 400 2675 
Q 750 2650 1250 2650 
L 2975 2650 
L 2975 3625 
L 1775 3625 
Q 1325 3625 1000 3600 
L 1000 4075 
z
" transform="scale(0.015625)"/>
       <path id="SimHei-76ee" d="M 1800 2950 
L 1800 1800 
L 4725 1800 
L 4725 2950 
L 1800 2950 
z
M 1800 1425 
L 1800 225 
L 4725 225 
L 4725 1425 
L 1800 1425 
z
M 1800 4425 
L 1800 3325 
L 4725 3325 
L 4725 4425 
L 1800 4425 
z
M 1250 4800 
L 5225 4800 
Q 5200 4100 5200 3450 
L 5200 525 
Q 5200 150 5225 -625 
L 4725 -625 
L 4725 -150 
L 1800 -150 
L 1800 -600 
L 1275 -600 
Q 1325 75 1325 475 
L 1325 3450 
Q 1300 4175 1250 4800 
z
" transform="scale(0.015625)"/>
       <path id="SimHei-6807" d="M 325 3800 
Q 700 3750 1175 3775 
L 1175 4375 
Q 1175 4775 1150 5150 
L 1675 5150 
Q 1625 4800 1625 4375 
L 1625 3775 
Q 2025 3775 2525 3800 
L 2525 3300 
Q 2025 3350 1625 3350 
L 1625 2275 
Q 1850 2400 2025 2525 
Q 2300 2125 2600 1650 
Q 2325 1525 2125 1375 
Q 1925 1850 1625 2275 
L 1625 450 
Q 1625 -75 1650 -600 
L 1150 -600 
Q 1175 -50 1175 450 
L 1175 2125 
Q 950 1450 575 775 
Q 450 1025 225 1225 
Q 550 1625 775 2212 
Q 1000 2800 1100 3350 
Q 675 3350 325 3300 
L 325 3800 
z
M 2825 4750 
Q 3175 4725 3600 4725 
L 4825 4725 
Q 5200 4725 5525 4750 
L 5525 4250 
Q 5200 4300 4825 4300 
L 3600 4300 
Q 3200 4300 2825 4250 
L 2825 4750 
z
M 2550 3175 
Q 2875 3150 3375 3150 
L 5150 3150 
Q 5550 3150 5925 3175 
L 5925 2700 
Q 5550 2725 5150 2725 
L 4350 2725 
L 4350 125 
Q 4350 -325 4137 -412 
Q 3925 -500 3450 -600 
Q 3400 -300 3250 0 
Q 3650 -25 3775 12 
Q 3900 50 3900 300 
L 3900 2725 
L 3375 2725 
Q 2850 2725 2550 2675 
L 2550 3175 
z
M 3025 2050 
Q 3300 1925 3575 1850 
Q 3450 1725 3187 1062 
Q 2925 400 2700 -50 
Q 2475 75 2200 175 
Q 2500 600 2712 1112 
Q 2925 1625 3025 2050 
z
M 4625 1775 
Q 4850 1900 5050 2075 
Q 5650 1275 6075 600 
Q 5825 475 5600 275 
Q 5175 1050 4625 1775 
z
" transform="scale(0.015625)"/>
       <path id="SimHei-6570" d="M 700 4850 
Q 950 4925 1100 5025 
Q 1300 4700 1475 4375 
Q 1250 4275 1075 4175 
Q 925 4550 700 4850 
z
M 2875 5025 
Q 3150 4900 3400 4800 
Q 3250 4700 3150 4525 
Q 3050 4350 2925 4125 
Q 2725 4225 2525 4275 
Q 2725 4600 2875 5025 
z
M 2450 3175 
Q 2675 3275 2825 3425 
Q 3125 3000 3325 2650 
Q 3100 2550 2900 2400 
Q 2700 2875 2450 3175 
z
M 525 3950 
Q 925 3925 1800 3925 
Q 1800 4650 1775 5175 
L 2275 5175 
Q 2250 4650 2250 3925 
Q 3075 3925 3450 3950 
L 3450 3500 
Q 3075 3525 2250 3525 
Q 2250 2950 2275 2525 
L 1775 2525 
Q 1800 2900 1800 3325 
Q 1675 3075 1387 2787 
Q 1100 2500 750 2300 
Q 650 2525 425 2675 
Q 650 2750 987 3000 
Q 1325 3250 1475 3525 
Q 950 3525 525 3500 
L 525 3950 
z
M 1725 1550 
Q 1600 1300 1450 1050 
Q 1750 975 2250 850 
Q 2425 1075 2575 1550 
L 1725 1550 
z
M 1550 2450 
Q 1825 2350 2100 2275 
Q 2000 2175 1875 1950 
L 2850 1950 
L 3125 1950 
Q 2975 1300 2700 725 
Q 3125 600 3375 525 
Q 3175 250 3075 25 
Q 2850 175 2400 350 
Q 1800 -250 600 -650 
Q 500 -400 300 -250 
Q 1375 0 2000 525 
Q 1300 700 850 825 
Q 1000 1025 1250 1550 
Q 850 1550 300 1525 
L 300 1975 
Q 775 1950 1400 1950 
Q 1475 2150 1550 2450 
z
M 4075 5150 
Q 4375 5025 4700 4975 
Q 4575 4825 4512 4625 
Q 4450 4425 4350 4050 
L 5475 4050 
Q 5700 4050 6050 4075 
L 6050 3625 
Q 5775 3650 5600 3650 
Q 5575 3125 5475 2262 
Q 5375 1400 5000 750 
Q 5250 400 5575 175 
Q 5900 -50 6150 -150 
Q 5800 -375 5700 -600 
Q 5275 -300 5075 -87 
Q 4875 125 4700 375 
Q 4400 75 4137 -125 
Q 3875 -325 3300 -650 
Q 3175 -425 2900 -250 
Q 3375 -75 3775 200 
Q 4175 475 4450 775 
Q 4175 1325 4025 1862 
Q 3875 2400 3850 2625 
Q 3800 2450 3725 2225 
Q 3500 2325 3225 2425 
Q 3525 2975 3775 3750 
Q 4025 4525 4075 5150 
z
M 4250 3650 
Q 4150 3400 4100 3237 
Q 4050 3075 4287 2350 
Q 4525 1625 4750 1225 
Q 4975 1825 5062 2475 
Q 5150 3125 5150 3650 
L 4250 3650 
z
" transform="scale(0.015625)"/>
       <path id="SimHei-91cf" d="M 3450 2175 
L 3450 1800 
L 4750 1800 
L 4750 2175 
L 3450 2175 
z
M 3450 1525 
L 3450 1175 
L 4750 1175 
L 4750 1525 
L 3450 1525 
z
M 1675 2175 
L 1675 1800 
L 3000 1800 
L 3000 2175 
L 1675 2175 
z
M 1675 1525 
L 1675 1175 
L 3000 1175 
L 3000 1525 
L 1675 1525 
z
M 1200 2450 
L 5250 2450 
Q 5200 2150 5200 1737 
Q 5200 1325 5250 900 
L 3450 900 
L 3450 500 
L 4600 500 
Q 5000 525 5375 525 
L 5375 175 
Q 5000 225 4600 225 
L 3450 225 
L 3450 -225 
L 5125 -225 
Q 5550 -200 5950 -200 
L 5950 -525 
Q 5550 -500 5125 -500 
L 1300 -500 
Q 900 -500 475 -525 
L 475 -200 
Q 925 -200 1300 -225 
L 3000 -225 
L 3000 225 
L 1750 225 
Q 1375 225 1000 175 
L 1000 525 
Q 1400 525 1750 500 
L 3000 500 
L 3000 900 
L 1200 900 
Q 1225 1300 1225 1712 
Q 1225 2125 1200 2450 
z
M 1675 4775 
L 1675 4350 
L 4750 4350 
L 4750 4775 
L 1675 4775 
z
M 1675 4075 
L 1675 3675 
L 4750 3675 
L 4750 4075 
L 1675 4075 
z
M 1200 5050 
L 5250 5050 
Q 5200 4650 5200 4300 
Q 5200 3950 5250 3400 
L 1200 3400 
Q 1225 3950 1212 4300 
Q 1200 4650 1200 5050 
z
M 475 3150 
Q 1100 3125 1750 3100 
L 4825 3100 
Q 5400 3125 5900 3150 
L 5900 2800 
Q 5400 2825 4850 2825 
L 1750 2825 
Q 1100 2825 475 2800 
L 475 3150 
z
" transform="scale(0.015625)"/>
      </defs>
      <use xlink:href="#SimHei-653b"/>
      <use xlink:href="#SimHei-51fb" x="100"/>
      <use xlink:href="#SimHei-76ee" x="200"/>
      <use xlink:href="#SimHei-6807" x="300"/>
      <use xlink:href="#SimHei-6570" x="400"/>
      <use xlink:href="#SimHei-91cf" x="500"/>
     </g>
    </g>
   </g>
   <g id="matplotlib.axis_2">
    <g id="ytick_1">
     <g id="line2d_7">
      <defs>
       <path id="ma21e7e1c4b" d="M 0 0 
L -3.5 0 
" style="stroke: #000000; stroke-width: 0.8"/>
      </defs>
      <g>
       <use xlink:href="#ma21e7e1c4b" x="117" y="448.56" style="stroke: #000000; stroke-width: 0.8"/>
      </g>
     </g>
     <g id="text_8">
      <!-- 0.0 -->
      <g transform="translate(77 456.079531)scale(0.22 -0.22)">
       <defs>
        <path id="SimHei-2e" d="M 1100 100 
L 525 100 
L 525 650 
L 1100 650 
L 1100 100 
z
" transform="scale(0.015625)"/>
       </defs>
       <use xlink:href="#SimHei-30"/>
       <use xlink:href="#SimHei-2e" x="50"/>
       <use xlink:href="#SimHei-30" x="100"/>
      </g>
     </g>
    </g>
    <g id="ytick_2">
     <g id="line2d_8">
      <g>
       <use xlink:href="#ma21e7e1c4b" x="117" y="400.05" style="stroke: #000000; stroke-width: 0.8"/>
      </g>
     </g>
     <g id="text_9">
      <!-- 2.5 -->
      <g transform="translate(77 407.569531)scale(0.22 -0.22)">
       <use xlink:href="#SimHei-32"/>
       <use xlink:href="#SimHei-2e" x="50"/>
       <use xlink:href="#SimHei-35" x="100"/>
      </g>
     </g>
    </g>
    <g id="ytick_3">
     <g id="line2d_9">
      <g>
       <use xlink:href="#ma21e7e1c4b" x="117" y="351.54" style="stroke: #000000; stroke-width: 0.8"/>
      </g>
     </g>
     <g id="text_10">
      <!-- 5.0 -->
      <g transform="translate(77 359.059531)scale(0.22 -0.22)">
       <use xlink:href="#SimHei-35"/>
       <use xlink:href="#SimHei-2e" x="50"/>
       <use xlink:href="#SimHei-30" x="100"/>
      </g>
     </g>
    </g>
    <g id="ytick_4">
     <g id="line2d_10">
      <g>
       <use xlink:href="#ma21e7e1c4b" x="117" y="303.03" style="stroke: #000000; stroke-width: 0.8"/>
      </g>
     </g>
     <g id="text_11">
      <!-- 7.5 -->
      <g transform="translate(77 310.549531)scale(0.22 -0.22)">
       <defs>
        <path id="SimHei-37" d="M 2775 3850 
L 1600 100 
L 1025 100 
L 2225 3900 
L 400 3900 
L 400 4375 
L 2775 4375 
L 2775 3850 
z
" transform="scale(0.015625)"/>
       </defs>
       <use xlink:href="#SimHei-37"/>
       <use xlink:href="#SimHei-2e" x="50"/>
       <use xlink:href="#SimHei-35" x="100"/>
      </g>
     </g>
    </g>
    <g id="ytick_5">
     <g id="line2d_11">
      <g>
       <use xlink:href="#ma21e7e1c4b" x="117" y="254.52" style="stroke: #000000; stroke-width: 0.8"/>
      </g>
     </g>
     <g id="text_12">
      <!-- 10.0 -->
      <g transform="translate(66 262.039531)scale(0.22 -0.22)">
       <use xlink:href="#SimHei-31"/>
       <use xlink:href="#SimHei-30" x="50"/>
       <use xlink:href="#SimHei-2e" x="100"/>
       <use xlink:href="#SimHei-30" x="150"/>
      </g>
     </g>
    </g>
    <g id="ytick_6">
     <g id="line2d_12">
      <g>
       <use xlink:href="#ma21e7e1c4b" x="117" y="206.01" style="stroke: #000000; stroke-width: 0.8"/>
      </g>
     </g>
     <g id="text_13">
      <!-- 12.5 -->
      <g transform="translate(66 213.529531)scale(0.22 -0.22)">
       <use xlink:href="#SimHei-31"/>
       <use xlink:href="#SimHei-32" x="50"/>
       <use xlink:href="#SimHei-2e" x="100"/>
       <use xlink:href="#SimHei-35" x="150"/>
      </g>
     </g>
    </g>
    <g id="ytick_7">
     <g id="line2d_13">
      <g>
       <use xlink:href="#ma21e7e1c4b" x="117" y="157.5" style="stroke: #000000; stroke-width: 0.8"/>
      </g>
     </g>
     <g id="text_14">
      <!-- 15.0 -->
      <g transform="translate(66 165.019531)scale(0.22 -0.22)">
       <use xlink:href="#SimHei-31"/>
       <use xlink:href="#SimHei-35" x="50"/>
       <use xlink:href="#SimHei-2e" x="100"/>
       <use xlink:href="#SimHei-30" x="150"/>
      </g>
     </g>
    </g>
    <g id="ytick_8">
     <g id="line2d_14">
      <g>
       <use xlink:href="#ma21e7e1c4b" x="117" y="108.99" style="stroke: #000000; stroke-width: 0.8"/>
      </g>
     </g>
     <g id="text_15">
      <!-- 17.5 -->
      <g transform="translate(66 116.509531)scale(0.22 -0.22)">
       <use xlink:href="#SimHei-31"/>
       <use xlink:href="#SimHei-37" x="50"/>
       <use xlink:href="#SimHei-2e" x="100"/>
       <use xlink:href="#SimHei-35" x="150"/>
      </g>
     </g>
    </g>
    <g id="ytick_9">
     <g id="line2d_15">
      <g>
       <use xlink:href="#ma21e7e1c4b" x="117" y="60.48" style="stroke: #000000; stroke-width: 0.8"/>
      </g>
     </g>
     <g id="text_16">
      <!-- 20.0 -->
      <g transform="translate(66 67.999531)scale(0.22 -0.22)">
       <use xlink:href="#SimHei-32"/>
       <use xlink:href="#SimHei-30" x="50"/>
       <use xlink:href="#SimHei-2e" x="100"/>
       <use xlink:href="#SimHei-30" x="150"/>
      </g>
     </g>
    </g>
    <g id="text_17">
     <!-- 攻击者收益 -->
     <g transform="translate(59.164062 309.52)rotate(-90)scale(0.22 -0.22)">
      <defs>
       <path id="SimHei-8005" d="M 2225 1650 
L 2225 1125 
L 4625 1125 
L 4625 1650 
L 2225 1650 
z
M 2225 725 
L 2225 150 
L 4625 150 
L 4625 725 
L 2225 725 
z
M 5125 4675 
Q 5425 4375 5750 4275 
Q 5425 4125 5125 3800 
Q 4825 3475 4400 3100 
L 5150 3100 
Q 5550 3100 6000 3125 
L 6000 2675 
Q 5550 2700 5125 2700 
L 3950 2700 
Q 3525 2400 3000 2050 
L 5150 2050 
Q 5125 1600 5125 1225 
L 5125 350 
Q 5125 -100 5150 -625 
L 4625 -625 
L 4625 -250 
L 2225 -250 
L 2225 -625 
L 1700 -625 
Q 1725 -225 1725 125 
L 1725 1300 
Q 1125 925 725 725 
Q 475 1075 325 1225 
Q 600 1300 975 1437 
Q 1350 1575 1725 1800 
L 1725 2050 
L 2150 2050 
Q 2375 2175 2600 2325 
Q 2825 2475 3175 2700 
L 1325 2700 
Q 825 2700 375 2675 
L 375 3125 
Q 900 3100 1325 3100 
L 2725 3100 
L 2725 3875 
L 1975 3875 
Q 1600 3875 1200 3850 
L 1200 4300 
Q 1600 4275 1975 4275 
L 2725 4275 
Q 2725 4650 2700 5125 
L 3250 5125 
Q 3225 4775 3225 4275 
L 3600 4275 
Q 3925 4275 4350 4300 
L 4350 3850 
Q 3925 3875 3600 3875 
L 3225 3875 
L 3225 3100 
L 3725 3100 
Q 4075 3375 4400 3725 
Q 4725 4075 5125 4675 
z
" transform="scale(0.015625)"/>
       <path id="SimHei-6536" d="M 3575 5075 
Q 3900 4950 4225 4875 
Q 4050 4650 3925 4350 
Q 3800 4050 3725 3825 
L 5125 3825 
Q 5625 3825 6075 3850 
L 6075 3375 
Q 5625 3400 5275 3400 
Q 5225 2625 5025 1987 
Q 4825 1350 4525 825 
Q 4825 500 5200 312 
Q 5575 125 6000 0 
Q 5625 -125 5525 -475 
Q 5125 -300 4825 -87 
Q 4525 125 4200 450 
Q 3600 -200 2900 -600 
Q 2750 -350 2450 -200 
Q 3250 125 3875 800 
Q 3625 1200 3475 1637 
Q 3325 2075 3225 2600 
Q 3025 2225 2875 2050 
Q 2700 2225 2425 2300 
Q 2825 2800 3162 3637 
Q 3500 4475 3575 5075 
z
M 3575 3400 
Q 3425 3075 3275 2750 
Q 3500 2775 3750 2850 
Q 3750 2475 3875 2037 
Q 4000 1600 4200 1225 
Q 4700 2125 4800 3400 
L 3575 3400 
z
M 575 4250 
L 1100 4250 
Q 1050 3925 1050 3425 
L 1050 1550 
L 1775 1700 
L 1775 4400 
Q 1775 4750 1750 5125 
L 2275 5125 
Q 2225 4825 2225 4425 
L 2225 275 
Q 2225 -50 2250 -550 
L 1750 -550 
Q 1775 -50 1775 275 
L 1775 1275 
Q 750 975 625 850 
Q 500 1100 350 1325 
Q 600 1450 600 1775 
L 600 3550 
Q 600 3900 575 4250 
z
" transform="scale(0.015625)"/>
       <path id="SimHei-76ca" d="M 1825 4900 
Q 2025 4975 2275 5100 
Q 2475 4750 2750 4200 
Q 2550 4125 2275 3975 
Q 2025 4475 1825 4900 
z
M 4075 5125 
Q 4350 5025 4675 4925 
Q 4525 4775 4412 4525 
Q 4300 4275 4150 3975 
L 4575 3975 
Q 5275 3975 5800 4000 
L 5800 3575 
Q 5275 3600 4575 3600 
L 2050 3600 
Q 1450 3600 675 3575 
L 675 4000 
Q 1275 3975 2050 3975 
L 3625 3975 
Q 3725 4200 3837 4512 
Q 3950 4825 4075 5125 
z
M 2375 3375 
Q 2600 3125 2875 2900 
Q 2475 2750 2075 2487 
Q 1675 2225 1200 2000 
L 5200 2000 
Q 5175 1625 5175 1075 
L 5175 75 
Q 5700 75 6075 100 
L 6075 -375 
Q 5625 -350 5175 -350 
L 1425 -350 
Q 825 -350 375 -375 
L 375 100 
Q 725 75 1275 75 
L 1275 1125 
Q 1275 1700 1250 2025 
Q 1100 1925 925 1825 
Q 750 2075 525 2275 
Q 900 2400 1400 2662 
Q 1900 2925 2375 3375 
z
M 3600 2875 
Q 3725 3050 3875 3325 
Q 4325 3150 4837 2925 
Q 5350 2700 5800 2525 
Q 5600 2325 5450 2025 
Q 4950 2325 4462 2537 
Q 3975 2750 3600 2875 
z
M 1700 1625 
L 1700 75 
L 2425 75 
L 2425 1625 
L 1700 1625 
z
M 2850 1625 
L 2850 75 
L 3575 75 
L 3575 1625 
L 2850 1625 
z
M 4000 1625 
L 4000 75 
L 4750 75 
L 4750 1625 
L 4000 1625 
z
" transform="scale(0.015625)"/>
      </defs>
      <use xlink:href="#SimHei-653b"/>
      <use xlink:href="#SimHei-51fb" x="100"/>
      <use xlink:href="#SimHei-8005" x="200"/>
      <use xlink:href="#SimHei-6536" x="300"/>
      <use xlink:href="#SimHei-76ca" x="400"/>
     </g>
    </g>
   </g>
   <g id="line2d_16">
    <path d="M 262.08 252.364 
L 269.248386 252.364 
L 269.7998 349.384 
L 421.990142 349.384 
L 422.541556 414.064 
L 574.731898 414.064 
L 575.283313 438.319 
L 727.473655 438.319 
L 728.025069 444.787 
L 842.71924 444.787 
L 842.71924 444.787 
" clip-path="url(#pdcd944fa3f)" style="fill: none; stroke: #1f77b4; stroke-width: 1.5; stroke-linecap: square"/>
   </g>
   <g id="patch_3">
    <path d="M 117 448.56 
L 117 60.48 
" style="fill: none; stroke: #000000; stroke-width: 0.8; stroke-linejoin: miter; stroke-linecap: square"/>
   </g>
   <g id="patch_4">
    <path d="M 842.4 448.56 
L 842.4 60.48 
" style="fill: none; stroke: #000000; stroke-width: 0.8; stroke-linejoin: miter; stroke-linecap: square"/>
   </g>
   <g id="patch_5">
    <path d="M 117 448.56 
L 842.4 448.56 
" style="fill: none; stroke: #000000; stroke-width: 0.8; stroke-linejoin: miter; stroke-linecap: square"/>
   </g>
   <g id="patch_6">
    <path d="M 117 60.48 
L 842.4 60.48 
" style="fill: none; stroke: #000000; stroke-width: 0.8; stroke-linejoin: miter; stroke-linecap: square"/>
   </g>
   <g id="text_18">
    <!-- 不同攻击目标数量的攻击者收益 -->
    <g transform="translate(294.9 54.48)scale(0.264 -0.264)">
     <defs>
      <path id="SimHei-4e0d" d="M 5225 4750 
Q 5550 4750 5925 4800 
L 5925 4250 
Q 5575 4300 5250 4300 
L 3950 4300 
Q 3700 3675 3400 3175 
L 3400 300 
Q 3400 -100 3450 -475 
L 2850 -475 
Q 2900 -125 2900 300 
L 2900 2625 
Q 1875 1550 850 925 
Q 625 1275 400 1400 
Q 1025 1600 1900 2325 
Q 2775 3050 3350 4300 
L 1425 4300 
Q 950 4300 525 4275 
L 525 4800 
Q 1175 4750 1575 4750 
L 5225 4750 
z
M 6000 1400 
Q 5650 1175 5500 975 
Q 5100 1475 3825 2700 
Q 4075 2850 4250 3075 
Q 4925 2475 5212 2175 
Q 5500 1875 6000 1400 
z
" transform="scale(0.015625)"/>
      <path id="SimHei-540c" d="M 1700 3675 
Q 1950 3650 2500 3650 
L 4025 3650 
Q 4475 3650 4675 3675 
L 4675 3200 
Q 4450 3225 4000 3225 
L 2475 3225 
Q 1925 3225 1700 3200 
L 1700 3675 
z
M 2075 2525 
L 4275 2525 
Q 4250 2225 4250 1687 
Q 4250 1150 4275 800 
L 2075 800 
Q 2075 1175 2075 1725 
Q 2075 2275 2075 2525 
z
M 2550 2100 
L 2550 1225 
L 3775 1225 
L 3775 2100 
L 2550 2100 
z
M 750 4800 
L 5625 4800 
Q 5600 4450 5600 3875 
L 5600 -25 
Q 5600 -350 5362 -437 
Q 5125 -525 4600 -575 
Q 4600 -350 4400 -25 
Q 4800 -50 4937 -37 
Q 5075 -25 5100 225 
L 5100 4350 
L 1275 4350 
L 1275 -550 
L 725 -550 
Q 750 -200 775 225 
L 775 3875 
Q 775 4475 750 4800 
z
" transform="scale(0.015625)"/>
      <path id="SimHei-7684" d="M 1525 5100 
Q 1850 5025 2200 4925 
Q 2100 4775 2025 4487 
Q 1950 4200 1900 3975 
L 2975 3975 
Q 2950 3525 2950 2900 
L 2950 700 
Q 2950 300 2975 -225 
L 2500 -225 
L 2500 300 
L 1200 300 
L 1200 -275 
L 725 -275 
Q 750 350 750 650 
L 750 2875 
Q 750 3525 725 3975 
L 1425 3975 
Q 1450 4225 1475 4462 
Q 1500 4700 1525 5100 
z
M 1200 3525 
L 1200 2425 
L 2500 2425 
L 2500 3525 
L 1200 3525 
z
M 1200 1950 
L 1200 775 
L 2500 775 
L 2500 1950 
L 1200 1950 
z
M 5850 3925 
Q 5800 3450 5775 3000 
L 5600 175 
Q 5525 -275 5150 -400 
Q 4775 -525 4350 -550 
Q 4350 -275 4175 25 
Q 4600 0 4850 37 
Q 5100 75 5150 350 
L 5350 3475 
L 4025 3475 
Q 3825 3050 3550 2525 
Q 3350 2675 3125 2775 
Q 3275 3000 3462 3400 
Q 3650 3800 3787 4262 
Q 3925 4725 3975 5025 
Q 4300 4875 4600 4800 
Q 4475 4600 4375 4387 
Q 4275 4175 4200 3925 
L 5850 3925 
z
M 3650 2300 
Q 3825 2400 4075 2550 
Q 4200 2325 4325 2050 
Q 4450 1775 4600 1375 
Q 4400 1300 4150 1150 
Q 4075 1425 3937 1750 
Q 3800 2075 3650 2300 
z
" transform="scale(0.015625)"/>
     </defs>
     <use xlink:href="#SimHei-4e0d"/>
     <use xlink:href="#SimHei-540c" x="100"/>
     <use xlink:href="#SimHei-653b" x="200"/>
     <use xlink:href="#SimHei-51fb" x="300"/>
     <use xlink:href="#SimHei-76ee" x="400"/>
     <use xlink:href="#SimHei-6807" x="500"/>
     <use xlink:href="#SimHei-6570" x="600"/>
     <use xlink:href="#SimHei-91cf" x="700"/>
     <use xlink:href="#SimHei-7684" x="800"/>
     <use xlink:href="#SimHei-653b" x="900"/>
     <use xlink:href="#SimHei-51fb" x="1000"/>
     <use xlink:href="#SimHei-8005" x="1100"/>
     <use xlink:href="#SimHei-6536" x="1200"/>
     <use xlink:href="#SimHei-76ca" x="1300"/>
    </g>
   </g>
   <g id="legend_1">
    <g id="patch_7">
     <path d="M 480.5 122.08 
L 827 122.08 
Q 831.4 122.08 831.4 117.68 
L 831.4 75.88 
Q 831.4 71.48 827 71.48 
L 480.5 71.48 
Q 476.1 71.48 476.1 75.88 
L 476.1 117.68 
Q 476.1 122.08 480.5 122.08 
z
" style="fill: #ffffff; opacity: 0.8; stroke: #cccccc; stroke-linejoin: miter"/>
    </g>
    <g id="line2d_17">
     <path d="M 484.9 93.26 
L 506.9 93.26 
L 528.9 93.26 
" style="fill: none; stroke: #1f77b4; stroke-width: 1.5; stroke-linecap: square"/>
    </g>
    <g id="text_19">
     <!-- $\frac{x_1}{\mu_1!}+ \frac{x_1}{min\{0.95*\eta,\mu_1-0.05*\eta\}!}$ -->
     <g transform="translate(546.5 100.96)scale(0.22 -0.22)">
      <defs>
       <path id="DejaVuSans-Oblique-78" d="M 3841 3500 
L 2234 1784 
L 3219 0 
L 2559 0 
L 1819 1388 
L 531 0 
L -166 0 
L 1556 1844 
L 641 3500 
L 1300 3500 
L 1972 2234 
L 3144 3500 
L 3841 3500 
z
" transform="scale(0.015625)"/>
       <path id="DejaVuSans-31" d="M 794 531 
L 1825 531 
L 1825 4091 
L 703 3866 
L 703 4441 
L 1819 4666 
L 2450 4666 
L 2450 531 
L 3481 531 
L 3481 0 
L 794 0 
L 794 531 
z
" transform="scale(0.015625)"/>
       <path id="DejaVuSans-Oblique-3bc" d="M -84 -1331 
L 856 3500 
L 1434 3500 
L 1009 1322 
Q 997 1256 987 1175 
Q 978 1094 978 1013 
Q 978 722 1161 565 
Q 1344 409 1684 409 
Q 2147 409 2431 671 
Q 2716 934 2816 1459 
L 3213 3500 
L 3788 3500 
L 3266 809 
Q 3253 750 3248 706 
Q 3244 663 3244 628 
Q 3244 531 3283 486 
Q 3322 441 3406 441 
Q 3438 441 3492 456 
Q 3547 472 3647 513 
L 3559 50 
Q 3422 -19 3297 -55 
Q 3172 -91 3053 -91 
Q 2847 -91 2730 40 
Q 2613 172 2613 403 
Q 2438 153 2195 31 
Q 1953 -91 1625 -91 
Q 1334 -91 1117 43 
Q 900 178 831 397 
L 494 -1331 
L -84 -1331 
z
" transform="scale(0.015625)"/>
       <path id="DejaVuSans-21" d="M 966 794 
L 1600 794 
L 1600 0 
L 966 0 
L 966 794 
z
M 966 4666 
L 1600 4666 
L 1600 2619 
L 1538 1503 
L 1031 1503 
L 966 2619 
L 966 4666 
z
" transform="scale(0.015625)"/>
       <path id="DejaVuSans-2b" d="M 2944 4013 
L 2944 2272 
L 4684 2272 
L 4684 1741 
L 2944 1741 
L 2944 0 
L 2419 0 
L 2419 1741 
L 678 1741 
L 678 2272 
L 2419 2272 
L 2419 4013 
L 2944 4013 
z
" transform="scale(0.015625)"/>
       <path id="DejaVuSans-Oblique-6d" d="M 5747 2113 
L 5338 0 
L 4763 0 
L 5166 2094 
Q 5191 2228 5203 2325 
Q 5216 2422 5216 2491 
Q 5216 2772 5059 2928 
Q 4903 3084 4622 3084 
Q 4203 3084 3875 2770 
Q 3547 2456 3450 1953 
L 3066 0 
L 2491 0 
L 2900 2094 
Q 2925 2209 2937 2307 
Q 2950 2406 2950 2484 
Q 2950 2769 2794 2926 
Q 2638 3084 2363 3084 
Q 1938 3084 1609 2770 
Q 1281 2456 1184 1953 
L 800 0 
L 225 0 
L 909 3500 
L 1484 3500 
L 1375 2956 
Q 1609 3263 1923 3423 
Q 2238 3584 2597 3584 
Q 2978 3584 3223 3384 
Q 3469 3184 3519 2828 
Q 3781 3197 4126 3390 
Q 4472 3584 4856 3584 
Q 5306 3584 5551 3325 
Q 5797 3066 5797 2591 
Q 5797 2488 5784 2364 
Q 5772 2241 5747 2113 
z
" transform="scale(0.015625)"/>
       <path id="DejaVuSans-Oblique-69" d="M 1172 4863 
L 1747 4863 
L 1606 4134 
L 1031 4134 
L 1172 4863 
z
M 909 3500 
L 1484 3500 
L 800 0 
L 225 0 
L 909 3500 
z
" transform="scale(0.015625)"/>
       <path id="DejaVuSans-Oblique-6e" d="M 3566 2113 
L 3156 0 
L 2578 0 
L 2988 2091 
Q 3016 2238 3031 2350 
Q 3047 2463 3047 2528 
Q 3047 2791 2881 2937 
Q 2716 3084 2419 3084 
Q 1956 3084 1622 2776 
Q 1288 2469 1184 1941 
L 800 0 
L 225 0 
L 903 3500 
L 1478 3500 
L 1363 2950 
Q 1603 3253 1940 3418 
Q 2278 3584 2650 3584 
Q 3113 3584 3367 3334 
Q 3622 3084 3622 2631 
Q 3622 2519 3608 2391 
Q 3594 2263 3566 2113 
z
" transform="scale(0.015625)"/>
       <path id="DejaVuSans-7b" d="M 3272 -594 
L 3272 -1044 
L 3078 -1044 
Q 2300 -1044 2036 -812 
Q 1772 -581 1772 109 
L 1772 856 
Q 1772 1328 1603 1509 
Q 1434 1691 991 1691 
L 800 1691 
L 800 2138 
L 991 2138 
Q 1438 2138 1605 2317 
Q 1772 2497 1772 2963 
L 1772 3713 
Q 1772 4403 2036 4633 
Q 2300 4863 3078 4863 
L 3272 4863 
L 3272 4416 
L 3059 4416 
Q 2619 4416 2484 4278 
Q 2350 4141 2350 3700 
L 2350 2925 
Q 2350 2434 2208 2212 
Q 2066 1991 1722 1913 
Q 2069 1828 2209 1606 
Q 2350 1384 2350 897 
L 2350 122 
Q 2350 -319 2484 -456 
Q 2619 -594 3059 -594 
L 3272 -594 
z
" transform="scale(0.015625)"/>
       <path id="DejaVuSans-30" d="M 2034 4250 
Q 1547 4250 1301 3770 
Q 1056 3291 1056 2328 
Q 1056 1369 1301 889 
Q 1547 409 2034 409 
Q 2525 409 2770 889 
Q 3016 1369 3016 2328 
Q 3016 3291 2770 3770 
Q 2525 4250 2034 4250 
z
M 2034 4750 
Q 2819 4750 3233 4129 
Q 3647 3509 3647 2328 
Q 3647 1150 3233 529 
Q 2819 -91 2034 -91 
Q 1250 -91 836 529 
Q 422 1150 422 2328 
Q 422 3509 836 4129 
Q 1250 4750 2034 4750 
z
" transform="scale(0.015625)"/>
       <path id="DejaVuSans-2e" d="M 684 794 
L 1344 794 
L 1344 0 
L 684 0 
L 684 794 
z
" transform="scale(0.015625)"/>
       <path id="DejaVuSans-39" d="M 703 97 
L 703 672 
Q 941 559 1184 500 
Q 1428 441 1663 441 
Q 2288 441 2617 861 
Q 2947 1281 2994 2138 
Q 2813 1869 2534 1725 
Q 2256 1581 1919 1581 
Q 1219 1581 811 2004 
Q 403 2428 403 3163 
Q 403 3881 828 4315 
Q 1253 4750 1959 4750 
Q 2769 4750 3195 4129 
Q 3622 3509 3622 2328 
Q 3622 1225 3098 567 
Q 2575 -91 1691 -91 
Q 1453 -91 1209 -44 
Q 966 3 703 97 
z
M 1959 2075 
Q 2384 2075 2632 2365 
Q 2881 2656 2881 3163 
Q 2881 3666 2632 3958 
Q 2384 4250 1959 4250 
Q 1534 4250 1286 3958 
Q 1038 3666 1038 3163 
Q 1038 2656 1286 2365 
Q 1534 2075 1959 2075 
z
" transform="scale(0.015625)"/>
       <path id="DejaVuSans-35" d="M 691 4666 
L 3169 4666 
L 3169 4134 
L 1269 4134 
L 1269 2991 
Q 1406 3038 1543 3061 
Q 1681 3084 1819 3084 
Q 2600 3084 3056 2656 
Q 3513 2228 3513 1497 
Q 3513 744 3044 326 
Q 2575 -91 1722 -91 
Q 1428 -91 1123 -41 
Q 819 9 494 109 
L 494 744 
Q 775 591 1075 516 
Q 1375 441 1709 441 
Q 2250 441 2565 725 
Q 2881 1009 2881 1497 
Q 2881 1984 2565 2268 
Q 2250 2553 1709 2553 
Q 1456 2553 1204 2497 
Q 953 2441 691 2322 
L 691 4666 
z
" transform="scale(0.015625)"/>
       <path id="DejaVuSans-2a" d="M 3009 3897 
L 1888 3291 
L 3009 2681 
L 2828 2375 
L 1778 3009 
L 1778 1831 
L 1422 1831 
L 1422 3009 
L 372 2375 
L 191 2681 
L 1313 3291 
L 191 3897 
L 372 4206 
L 1422 3572 
L 1422 4750 
L 1778 4750 
L 1778 3572 
L 2828 4206 
L 3009 3897 
z
" transform="scale(0.015625)"/>
       <path id="DejaVuSans-Oblique-3b7" d="M 3703 2113 
L 3034 -1331 
L 2459 -1331 
L 3125 2094 
Q 3222 2591 3075 2838 
Q 2931 3084 2544 3084 
Q 2078 3084 1750 2788 
Q 1425 2491 1325 1978 
L 941 0 
L 363 0 
L 1044 3500 
L 1622 3500 
L 1516 2956 
Q 1781 3272 2094 3428 
Q 2403 3584 2769 3584 
Q 3372 3584 3609 3213 
Q 3844 2838 3703 2113 
z
" transform="scale(0.015625)"/>
       <path id="DejaVuSans-2c" d="M 750 794 
L 1409 794 
L 1409 256 
L 897 -744 
L 494 -744 
L 750 256 
L 750 794 
z
" transform="scale(0.015625)"/>
       <path id="DejaVuSans-2212" d="M 678 2272 
L 4684 2272 
L 4684 1741 
L 678 1741 
L 678 2272 
z
" transform="scale(0.015625)"/>
       <path id="DejaVuSans-7d" d="M 800 -594 
L 1019 -594 
Q 1456 -594 1589 -459 
Q 1722 -325 1722 122 
L 1722 897 
Q 1722 1384 1862 1606 
Q 2003 1828 2350 1913 
Q 2003 1991 1862 2212 
Q 1722 2434 1722 2925 
L 1722 3700 
Q 1722 4144 1589 4280 
Q 1456 4416 1019 4416 
L 800 4416 
L 800 4863 
L 997 4863 
Q 1775 4863 2036 4633 
Q 2297 4403 2297 3713 
L 2297 2963 
Q 2297 2497 2465 2317 
Q 2634 2138 3078 2138 
L 3272 2138 
L 3272 1691 
L 3078 1691 
Q 2634 1691 2465 1509 
Q 2297 1328 2297 856 
L 2297 109 
Q 2297 -581 2036 -812 
Q 1775 -1044 997 -1044 
L 800 -1044 
L 800 -594 
z
" transform="scale(0.015625)"/>
      </defs>
      <use xlink:href="#DejaVuSans-Oblique-78" transform="translate(22 55.71875)scale(0.7)"/>
      <use xlink:href="#DejaVuSans-31" transform="translate(63.425781 44.234375)scale(0.49)"/>
      <use xlink:href="#DejaVuSans-Oblique-3bc" transform="translate(0 -38.05)scale(0.7)"/>
      <use xlink:href="#DejaVuSans-31" transform="translate(44.536133 -49.534375)scale(0.49)"/>
      <use xlink:href="#DejaVuSans-21" transform="translate(77.625488 -38.05)scale(0.7)"/>
      <use xlink:href="#DejaVuSans-2b" transform="translate(151.307129 0.4375)"/>
      <use xlink:href="#DejaVuSans-Oblique-78" transform="translate(710.578613 55.71875)scale(0.7)"/>
      <use xlink:href="#DejaVuSans-31" transform="translate(752.004395 44.234375)scale(0.49)"/>
      <use xlink:href="#DejaVuSans-Oblique-6d" transform="translate(254.578613 -40.204688)scale(0.7)"/>
      <use xlink:href="#DejaVuSans-Oblique-69" transform="translate(322.76709 -40.204688)scale(0.7)"/>
      <use xlink:href="#DejaVuSans-Oblique-6e" transform="translate(342.215332 -40.204688)scale(0.7)"/>
      <use xlink:href="#DejaVuSans-7b" transform="translate(386.580566 -40.204688)scale(0.7)"/>
      <use xlink:href="#DejaVuSans-30" transform="translate(431.116699 -40.204688)scale(0.7)"/>
      <use xlink:href="#DejaVuSans-2e" transform="translate(475.652832 -40.204688)scale(0.7)"/>
      <use xlink:href="#DejaVuSans-39" transform="translate(497.903809 -40.204688)scale(0.7)"/>
      <use xlink:href="#DejaVuSans-35" transform="translate(542.439941 -40.204688)scale(0.7)"/>
      <use xlink:href="#DejaVuSans-2a" transform="translate(600.61377 -40.204688)scale(0.7)"/>
      <use xlink:href="#DejaVuSans-Oblique-3b7" transform="translate(649.251465 -40.204688)scale(0.7)"/>
      <use xlink:href="#DejaVuSans-2c" transform="translate(693.616699 -40.204688)scale(0.7)"/>
      <use xlink:href="#DejaVuSans-Oblique-3bc" transform="translate(729.505371 -40.204688)scale(0.7)"/>
      <use xlink:href="#DejaVuSans-31" transform="translate(774.041504 -51.689063)scale(0.49)"/>
      <use xlink:href="#DejaVuSans-2212" transform="translate(820.768555 -40.204688)scale(0.7)"/>
      <use xlink:href="#DejaVuSans-30" transform="translate(893.058594 -40.204688)scale(0.7)"/>
      <use xlink:href="#DejaVuSans-2e" transform="translate(937.594727 -40.204688)scale(0.7)"/>
      <use xlink:href="#DejaVuSans-30" transform="translate(959.845703 -40.204688)scale(0.7)"/>
      <use xlink:href="#DejaVuSans-35" transform="translate(1004.381836 -40.204688)scale(0.7)"/>
      <use xlink:href="#DejaVuSans-2a" transform="translate(1062.555664 -40.204688)scale(0.7)"/>
      <use xlink:href="#DejaVuSans-Oblique-3b7" transform="translate(1111.193359 -40.204688)scale(0.7)"/>
      <use xlink:href="#DejaVuSans-7d" transform="translate(1155.558594 -40.204688)scale(0.7)"/>
      <use xlink:href="#DejaVuSans-21" transform="translate(1200.094727 -40.204688)scale(0.7)"/>
      <path d="M 0 19.234375 
L 0 25.484375 
L 119.324707 25.484375 
L 119.324707 19.234375 
L 0 19.234375 
z
"/>
      <path d="M 254.578613 19.234375 
L 254.578613 25.484375 
L 1241.793945 25.484375 
L 1241.793945 19.234375 
L 254.578613 19.234375 
z
"/>
     </g>
    </g>
   </g>
  </g>
 </g>
 <defs>
  <clipPath id="pdcd944fa3f">
   <rect x="117" y="60.48" width="725.4" height="388.08"/>
  </clipPath>
 </defs>
</svg>
